<?xml version="1.0" encoding="UTF-8" standalone="no"?>
<!-- Created with Inkscape (http://www.inkscape.org/) -->

<svg
   xmlns:dc="http://purl.org/dc/elements/1.1/"
   xmlns:cc="http://creativecommons.org/ns#"
   xmlns:rdf="http://www.w3.org/1999/02/22-rdf-syntax-ns#"
   xmlns:svg="http://www.w3.org/2000/svg"
   xmlns="http://www.w3.org/2000/svg"
   version="1.1"
   width="415"
   height="415"
   id="svg4284">
  <defs
     id="defs4286">
    <clipPath
       id="clipPath9040-0">
      <path
         d="m 700.03571,362.93307 a 308.60159,308.60159 0 1 1 -617.20319,0 308.60159,308.60159 0 1 1 617.20319,0 z"
         id="path9042-6"
         style="fill:#aee2fc;fill-opacity:1;stroke:none" />
    </clipPath>
  </defs>
  <metadata
     id="metadata4289">
    <rdf:RDF>
      <cc:Work
         rdf:about="">
        <dc:format>image/svg+xml</dc:format>
        <dc:type
           rdf:resource="http://purl.org/dc/dcmitype/StillImage" />
        <dc:title></dc:title>
      </cc:Work>
    </rdf:RDF>
  </metadata>
  <g
     transform="translate(0,-637.36218)"
     id="layer1">
    <g
       transform="translate(170.63263,138.22326)"
       id="g4415">
      <rect
         width="415.55096"
         height="414.98203"
         x="-170.63263"
         y="499.15689"
         id="rect5312"
         style="fill:#888a85;fill-opacity:0;stroke:none" />
      <g
         transform="matrix(0.40917643,0,0,0.40917643,-123.01977,557.93012)"
         id="g4063"
         style="display:inline">
        <path
           d="m 700.03571,362.93307 a 308.60159,308.60159 0 1 1 -617.20319,0 308.60159,308.60159 0 1 1 617.20319,0 z"
           id="path3785"
           style="fill:#aee2fc;fill-opacity:1;stroke:none" />
        <g
           transform="matrix(-1,0,0,1,785.32332,0)"
           id="g9048"
           style="opacity:0.64224135">
          <path
             d="m 180.85265,154.69359 c 29.07449,0.0327 55.6399,7.12836 60.15477,26.19098 8.49843,35.88253 40.6128,-33.07974 101.0465,17.91125 60.4337,50.991 6.65025,98.27335 -45.28505,97.32907 L 91.465368,301.02514 C 102.74978,245.63522 128.93298,195.63739 165.5605,155.36949 c 5.09115,-0.39251 10.24513,-0.6816 15.29215,-0.6759 z"
             id="path4813"
             style="opacity:0.4;fill:#ffffff;stroke:none;display:inline" />
          <path
             d="m 594.50119,408.8306 c 29.07449,0.0327 55.63989,7.12835 60.15477,26.19098 4.89979,20.68816 17.70278,6.59948 39.20199,0.6759 -10.39213,43.00847 -29.79925,82.47011 -56.0994,116.33865 l -202.17748,4.81576 c 0,0 -109.5108,-2.82725 -44.35569,-53.81824 65.15518,-50.99103 103.91905,-26.44445 103.91905,-26.44445 0,0 -3.83222,-38.69484 30.16188,-54.7476 15.93463,-7.52467 43.54094,-13.03996 69.19488,-13.011 z"
             id="path4756-4"
             style="opacity:0.4;fill:#ffffff;stroke:none;display:inline" />
        </g>
        <g
           transform="matrix(3.3794815,0,0,-3.3794815,6.8586164,434.24638)"
           id="g8573" />
        <g
           transform="matrix(1.0789564,0.09900339,-0.09900339,1.0789564,79.089599,11.820014)"
           id="g8790">
          <g
             transform="matrix(0.99928217,-0.03788327,0.03788327,0.99928217,98.956023,-183.54806)"
             id="g4012">
            <path
               d="m 215.71875,110.6875 c -46.15523,0 -83.5625,37.40728 -83.5625,83.5625 0,44.45763 34.69894,129.40457 78.5,135.59375 -0.29469,0.82514 2.48085,1.18921 2.25901,2.59417 -0.75761,4.79822 -6.15609,10.02777 -6.15609,10.02777 3.50984,5.2784 18.05966,0.16137 16.9219,-2.27965 -2.79269,-5.99163 -4.84734,-8.27988 -4.52482,-10.15479 44.55441,-4.30544 80.125,-90.78238 80.125,-135.78125 0,-46.15522 -37.40727,-83.5625 -83.5625,-83.5625 z"
               id="path4014"
               style="fill:#c17d11;fill-opacity:1;fill-rule:evenodd;stroke:none" />
            <path
               d="m 215.70982,110.67411 c -46.15523,0 -83.5625,37.43853 -83.5625,83.59375 0,26.43738 12.27488,67.18803 31.4375,97.1875 71.55045,40.15706 142.37067,-102.89585 104.9375,-161.9375 -14.39778,-11.76 -32.77249,-18.84375 -52.8125,-18.84375 z"
               id="path4016"
               style="fill:#e9b96e;fill-opacity:1;fill-rule:evenodd;stroke:none" />
          </g>
          <g
             transform="matrix(1.0014148,0.06035582,0.06035582,-1.0014148,293.69652,21.038956)"
             id="g8241"
             style="fill:#8f5902">
            <path
               d="m 0,0 c 0,11.828 9.588,21.416 21.412,21.416 11.83,0 22.369,-10.539 22.369,-22.367 0,-11.828 -9.588,-21.416 -21.416,-21.416 C 10.539,-22.367 0,-11.828 0,0 m 67.705,-35.903 -18.894,18.894 c 2.849,4.681 4.49,10.177 4.49,16.058 0,17.082 -14.803,31.885 -31.889,31.885 C 4.33,30.934 -9.52,17.084 -9.52,0 c 0,-17.084 14.803,-31.885 31.885,-31.885 5.68,0 11,1.538 15.574,4.21 l 18.997,-18.997 c 1.859,-1.859 4.873,-1.859 6.73,0 l 4.713,4.711 c 1.859,1.859 1.185,4.199 -0.674,6.058"
               id="path8243"
               style="fill:#8f5902;fill-opacity:1;fill-rule:nonzero;stroke:none" />
          </g>
        </g>
        <g
           transform="matrix(1.081524,0.06522603,-0.06522603,1.081524,-53.118442,-149.3547)"
           id="g8709">
          <g
             transform="matrix(0.99549827,-0.07140823,0.07140823,0.99549827,-158.93329,200.65053)"
             id="g3897">
            <g
               transform="matrix(1.0613257,0,0,1.0613257,147.60579,-147.10677)"
               id="g3899"
               style="fill:#cc0000">
              <path
                 d="m 462.84375,85.6875 c -46.15523,0 -79.97321,25.97425 -85.6875,72.84375 -5.58584,45.81598 6.79231,147.94113 49.28125,165.96875 1.90412,0.8079 1.58862,1.59417 3.60867,1.92618 -0.63466,0.95155 -0.97357,1.59008 -2.07833,2.91217 -3.85121,4.60882 -9.75544,3.84104 -4.76782,6.05075 9.19522,4.07383 11.42263,2.25667 11.42263,2.25667 -1.07312,-4.1409 -2.81927,-5.08583 -1.29186,-9.4294 l 2.47283,-0.26502 c 41.30267,2.09749 118.02531,-86.88601 109.72744,-165.86941 -4.82245,-45.9026 -36.53208,-76.39444 -82.68731,-76.39444 z"
                 transform="translate(-145.71429,63.571429)"
                 id="path3901"
                 style="fill:#75507b;fill-opacity:1;fill-rule:evenodd;stroke:none" />
              <path
                 d="m 317.15179,149.25 c -46.15523,0 -80.00446,26.0055 -85.71875,72.875 -4.24443,34.81348 1.88879,102.10917 23.71875,140.34375 41.08347,12.95554 108.26105,-80.02504 117.71875,-156.0625 2.0313,-16.33113 -2.16396,-31.65311 -10.46875,-44.59375 -13.42157,-7.93657 -29.14187,-12.5625 -45.25,-12.5625 z"
                 id="path3903"
                 style="fill:#ad7fa8;fill-opacity:1;fill-rule:evenodd;stroke:none" />
            </g>
          </g>
          <g
             transform="matrix(1.163703,0.06437798,0.06437798,-1.163703,368.57676,334.42231)"
             id="g8387"
             style="fill:#5c3566">
            <path
               d="M 0,0 C -0.318,-1.923 6.417,-5.083 7.059,0.542 9.951,25.899 4.978,33.198 4.978,33.198 l -6.973,-3.904 c 0,0 5.912,-5.627 1.995,-29.294 m 12.722,44.176 -41.625,23.31 c -3.262,1.827 -8.598,1.827 -11.86,0 l -41.625,-23.31 c -3.26,-1.826 -3.26,-4.815 0,-6.641 l 41.625,-23.308 c 3.262,-1.827 8.598,-1.827 11.86,0 l 26.908,15.067 -29.179,6.835 c -1.126,-0.278 -2.362,-0.435 -3.659,-0.435 -5.256,0 -9.518,2.535 -9.518,5.662 0,3.127 4.262,5.663 9.518,5.663 4.081,0 7.552,-1.532 8.904,-3.678 l 30.907,-10.143 7.744,4.337 c 3.26,1.826 3.26,4.815 0,6.641 M -68.323,19.659 c 2.319,-9.395 5.266,-13.501 15.11,-17.805 9.844,-4.303 14.519,-8.998 18.38,-8.998 3.861,0 8.239,4.113 18.083,8.416 9.844,4.304 7.218,5.614 9.537,15.009 l -27.62,-13.425 -33.49,16.803 z"
               id="path8389"
               style="fill:#5c3566;fill-opacity:1;fill-rule:nonzero;stroke:none" />
          </g>
        </g>
        <g
           transform="matrix(1.0307902,-0.05755937,0.05755937,1.0307902,20.431934,223.58731)"
           id="g3818">
          <g
             transform="translate(168.94779,-134.28211)"
             id="g3769"
             style="fill:#f57900">
            <path
               d="m 462.84375,85.6875 c -46.15523,0 -79.97321,25.97425 -85.6875,72.84375 -5.58584,45.81598 6.79231,147.94113 49.28125,165.96875 1.90412,0.8079 2.46599,0.50286 4.48604,0.83487 -0.63466,0.95155 0.24372,3.18679 -0.86104,4.50888 -3.85121,4.60882 -7.61643,3.72811 -2.62881,5.93782 9.19522,4.07383 15.14531,2.34613 15.14531,2.34613 -1.07312,-4.1409 -9.2486,-5.81338 -7.72119,-10.15695 L 435.375,326.5 c 41.30267,2.09749 102.09918,-85.1872 111.0625,-157.25 5.69698,-45.80228 -37.43852,-83.5625 -83.59375,-83.5625 z"
               transform="translate(-145.71429,63.571429)"
               id="path3756"
               style="fill:#f57900;fill-opacity:1;fill-rule:evenodd;stroke:none" />
            <path
               d="m 317.15179,149.25 c -46.15523,0 -80.00446,26.0055 -85.71875,72.875 -4.24443,34.81348 1.88879,102.10917 23.71875,140.34375 41.08347,12.95554 108.26105,-80.02504 117.71875,-156.0625 2.0313,-16.33113 -2.16396,-31.65311 -10.46875,-44.59375 -13.42157,-7.93657 -29.14187,-12.5625 -45.25,-12.5625 z"
               id="path3763"
               style="fill:#fcaf3e;fill-opacity:1;fill-rule:evenodd;stroke:none" />
          </g>
          <g
             transform="matrix(0.86905909,0.11522189,0.11522189,-0.86905909,467.81468,131.65427)"
             id="g8841"
             style="fill:#ce5c00">
            <path
               d="m 0,0 55.342,15.813 c 1.057,0.302 1.923,1.449 1.923,2.549 l 0,27.5 -70.5,0 0,8.5 c 0,1.1 -0.9,2 -2,2 l -15.5,0 c -1.101,0 -2,-0.9 -2,-2 l 0,-8 9.717,0 9.839,-45.284 0.944,-4.717 0,-7.5 c 0,-1.099 0.899,-2 2,-2 l 2.5,0 50,0 13,0 c 1.1,0 2,0.901 2,2 l 0,7.5 -56.24,0 C -4.723,-3.639 -4.84,-1.385 0,0 m 32.264,-23.639 c 0,-5.523 4.476,-9.999 10.001,-9.999 5.524,0 9.999,4.476 9.999,9.999 0,5.524 -4.475,10 -9.999,10 -5.525,0 -10.001,-4.476 -10.001,-10 m -50,0 c 0,-5.523 4.476,-9.999 10.001,-9.999 5.524,0 9.999,4.476 9.999,9.999 0,5.524 -4.475,10 -9.999,10 -5.525,0 -10.001,-4.476 -10.001,-10"
               id="path8843"
               style="fill:#ce5c00;fill-opacity:1;fill-rule:nonzero;stroke:none" />
          </g>
        </g>
        <g
           clip-path="url(#clipPath9040-0)"
           id="g9007">
          <g
             transform="matrix(1.1583777,0.11339721,-0.11339721,1.1583777,-67.538868,104.00933)"
             id="g3824">
            <path
               d="m 215.71875,110.6875 c -46.15523,0 -83.5625,37.40728 -83.5625,83.5625 0,44.45763 34.69894,129.40457 78.5,135.59375 -0.29469,0.82514 -0.59066,1.87629 -0.8125,3.28125 -0.75761,4.79822 -8.5625,8.09375 -8.5625,8.09375 5.05077,7.82868 25.23319,8.58122 20.6875,0.5 -3.24087,-5.76155 -3.13502,-9.81259 -2.8125,-11.6875 44.55441,-4.30544 80.125,-90.78238 80.125,-135.78125 0,-46.15522 -37.40727,-83.5625 -83.5625,-83.5625 z"
               id="path2985"
               style="fill:#edd400;fill-opacity:1;fill-rule:evenodd;stroke:none" />
            <path
               d="m 215.70982,110.67411 c -46.15523,0 -83.5625,37.43853 -83.5625,83.59375 0,26.43738 12.27488,67.18803 31.4375,97.1875 9.69907,8.54876 20.29382,13.75 31.40625,13.75 46.15523,0 83.59375,-89.78227 83.59375,-135.9375 0,-14.38863 -3.65877,-27.92879 -10.0625,-39.75 -14.39778,-11.76 -32.77249,-18.84375 -52.8125,-18.84375 z"
               id="path3758"
               style="fill:#fce94f;fill-opacity:1;fill-rule:evenodd;stroke:none" />
            <g
               transform="matrix(0.84486079,-0.0904403,0.0904403,0.84486079,12.206243,61.202482)"
               id="g9044">
              <path
                 d="m 217.47505,158.14447 -57.79369,85.56886 18.95436,0 17.81707,6.40528 21.02226,-65.25598 0,58.8507 57.82486,0 -57.79369,-85.56886 -0.0311,0 z"
                 id="path8797"
                 style="fill:#c4a000;stroke:none;display:inline" />
              <path
                 d="m 217.24491,164.05622 26.4931,-7.1268 -26.4931,-6.81694 z"
                 id="path8830"
                 style="fill:#c4a000;stroke:none;display:inline" />
            </g>
          </g>
          <g
             transform="matrix(1.8985493,-0.0107677,0.0107677,1.8985493,137.46497,33.689904)"
             id="g3915"
             style="fill:#73d216">
            <g
               transform="translate(-115.98234,57.425533)"
               id="g8779">
              <g
                 transform="translate(4.619135,-21.806521)"
                 id="g3947"
                 style="fill:#8ae234">
                <path
                   d="m 215.71875,110.6875 c -46.15523,0 -83.5625,37.40728 -83.5625,83.5625 0,44.45763 34.69894,129.40457 78.5,135.59375 -0.29469,0.82514 2.48085,1.18921 2.25901,2.59417 -0.75761,4.79822 -6.15609,10.02777 -6.15609,10.02777 3.50984,5.2784 18.05966,0.16137 16.9219,-2.27965 -2.79269,-5.99163 -4.84734,-8.27988 -4.52482,-10.15479 44.55441,-4.30544 80.125,-90.78238 80.125,-135.78125 0,-46.15522 -37.40727,-83.5625 -83.5625,-83.5625 z"
                   id="path3917"
                   style="fill:#73d216;fill-opacity:1;fill-rule:evenodd;stroke:none" />
                <path
                   d="m 215.70982,110.67411 c -46.15523,0 -83.5625,37.43853 -83.5625,83.59375 0,26.43738 12.27488,67.18803 31.4375,97.1875 84.69274,47.63254 125.70574,-117.71433 104.9375,-161.9375 -14.39778,-11.76 -32.77249,-18.84375 -52.8125,-18.84375 z"
                   id="path3919"
                   style="fill:#8ae234;fill-opacity:1;fill-rule:evenodd;stroke:none" />
              </g>
              <g
                 transform="matrix(0.50895161,0.02924592,-0.02924592,0.50895161,7.4814168,-67.073256)"
                 id="g4005"
                 style="fill:#4e9a06;display:inline">
                <path
                   d="m 883,261.36218 a 50.5,69 0 1 1 -101,0 50.5,69 0 1 1 101,0 z"
                   transform="matrix(0.29532249,-0.25940753,0.25940753,0.29532249,78.813907,614.70618)"
                   id="path3995"
                   style="fill:#4e9a06;fill-opacity:1;stroke:none" />
                <path
                   d="m 895.54412,262.01103 c 0,19.8522 -6.13601,37.74625 -15.95808,50.33466 -9.03205,11.5759 -41.57056,10.80581 -54.60005,13.33788 C 791.55513,332.18031 782,299.46983 782,261.36218 c 0,-38.10765 17.51706,-80.10406 44.3538,-70.3552 38.01825,13.81071 69.19032,32.8964 69.19032,71.00405 z"
                   transform="matrix(0.18981306,0.90769846,-0.85494565,0.13336342,538.89784,-249.58071)"
                   id="path3997"
                   style="fill:#4e9a06;fill-opacity:1;stroke:none" />
                <path
                   d="m 883,261.36218 a 50.5,69 0 1 1 -101,0 50.5,69 0 1 1 101,0 z"
                   transform="matrix(0.40077873,-0.12524829,0.10790476,0.43526825,76.051319,427.48546)"
                   id="path3999"
                   style="fill:#4e9a06;fill-opacity:1;stroke:none" />
                <path
                   d="m 883,261.36218 a 50.5,69 0 1 1 -101,0 50.5,69 0 1 1 101,0 z"
                   transform="matrix(0.41223764,0.07981758,-0.11144416,0.43437552,182.58144,248.62248)"
                   id="path4001"
                   style="fill:#4e9a06;fill-opacity:1;stroke:none" />
                <path
                   d="m 883,261.36218 a 50.5,69 0 1 1 -101,0 50.5,69 0 1 1 101,0 z"
                   transform="matrix(0.29379965,0.276557,-0.3341965,0.32849999,381.75,152.34565)"
                   id="path4003"
                   style="fill:#4e9a06;fill-opacity:1;stroke:none" />
              </g>
            </g>
          </g>
          <g
             transform="matrix(1.3040084,-0.12366312,0.12366312,1.3040084,-197.85876,158.0228)"
             id="g8717">
            <g
               transform="matrix(0.98528406,0.17092487,-0.17092487,0.98528406,391.07557,59.131373)"
               id="g3830"
               style="fill:#3465a4">
              <path
                 d="m 215.71875,110.6875 c -46.15523,0 -83.5625,37.40728 -83.5625,83.5625 0,44.45763 34.69894,129.40457 78.5,135.59375 -0.29469,0.82514 2.48085,1.18921 2.25901,2.59417 -0.75761,4.79822 -6.15609,10.02777 -6.15609,10.02777 3.50984,5.2784 18.05966,0.16137 16.9219,-2.27965 -2.79269,-5.99163 -4.84734,-8.27988 -4.52482,-10.15479 44.55441,-4.30544 80.125,-90.78238 80.125,-135.78125 0,-46.15522 -37.40727,-83.5625 -83.5625,-83.5625 z"
                 id="path3832"
                 style="fill:#3465a4;fill-opacity:1;fill-rule:evenodd;stroke:none" />
              <path
                 d="m 215.70982,110.67411 c -46.15523,0 -83.5625,37.43853 -83.5625,83.59375 0,26.43738 12.27488,67.18803 31.4375,97.1875 84.69274,47.63254 125.70574,-117.71433 104.9375,-161.9375 -14.39778,-11.76 -32.77249,-18.84375 -52.8125,-18.84375 z"
                 id="path3834"
                 style="fill:#729fcf;fill-opacity:1;fill-rule:evenodd;stroke:none" />
            </g>
            <g
               transform="matrix(1.5199197,0.32574136,-0.32574136,1.5199197,-714.00051,-487.78057)"
               id="g3887"
               style="fill:#204a87">
              <path
                 d="m 914.125,294.625 c -12.90966,0 -23.375,10.46534 -23.375,23.375 0,3.93589 0.96927,7.65208 2.6875,10.90625 l 3.71875,-3.28125 C 896.10752,323.29483 895.5,320.72105 895.5,318 c 0,-10.2863 8.3387,-18.625 18.625,-18.625 10.2863,0 18.625,8.3387 18.625,18.625 0,3.07986 -0.77019,5.97214 -2.09375,8.53125 l 3.6875,3.21875 C 936.35323,326.29889 937.5,322.28135 937.5,318 c 0,-12.90966 -10.46534,-23.375 -23.375,-23.375 z m -8.78125,39.78125 -3.5,3.5 c 3.56774,2.20606 7.77839,3.46875 12.28125,3.46875 4.17523,0 8.10747,-1.082 11.5,-3 l -3.5625,-3.5625 c -2.4122,1.14102 -5.09189,1.8125 -7.9375,1.8125 -3.17951,0 -6.16265,-0.81407 -8.78125,-2.21875 z"
                 id="path3855"
                 style="fill:#204a87;fill-opacity:1;stroke:none" />
              <path
                 d="m 561,299.23718 a 23.375,23.375 0 1 1 -46.75,0 23.375,23.375 0 1 1 46.75,0 z"
                 transform="matrix(0.23276578,0,0,0.23276578,790.47813,231.115)"
                 id="path3859"
                 style="fill:#204a87;fill-opacity:1;stroke:none" />
              <path
                 d="m 561,299.23718 a 23.375,23.375 0 1 1 -46.75,0 23.375,23.375 0 1 1 46.75,0 z"
                 transform="matrix(0.20687655,0,0,0.20687655,781.20276,260.14985)"
                 id="path3863"
                 style="fill:#204a87;fill-opacity:1;stroke:none" />
              <path
                 d="m 561,299.23718 a 23.375,23.375 0 1 1 -46.75,0 23.375,23.375 0 1 1 46.75,0 z"
                 transform="matrix(0.20687655,0,0,0.20687655,786.00326,245.30358)"
                 id="path3865"
                 style="fill:#204a87;fill-opacity:1;stroke:none" />
              <path
                 d="m 561,299.23718 a 23.375,23.375 0 1 1 -46.75,0 23.375,23.375 0 1 1 46.75,0 z"
                 transform="matrix(0.20687655,0,0,0.20687655,822.01501,247.4015)"
                 id="path3867"
                 style="fill:#204a87;fill-opacity:1;stroke:none" />
              <path
                 d="m 561,299.23718 a 23.375,23.375 0 1 1 -46.75,0 23.375,23.375 0 1 1 46.75,0 z"
                 transform="matrix(0.20687655,0,0,0.20687655,824.1082,261.23957)"
                 id="path3869"
                 style="fill:#204a87;fill-opacity:1;stroke:none" />
              <path
                 d="m 561,299.23718 a 23.375,23.375 0 1 1 -46.75,0 23.375,23.375 0 1 1 46.75,0 z"
                 transform="matrix(0.20687655,0,0,0.20687655,801.9982,278.29298)"
                 id="path3871"
                 style="fill:#204a87;fill-opacity:1;stroke:none" />
              <path
                 d="m 913.625,310.375 c -4.21117,0 -7.625,3.41383 -7.625,7.625 0,1.29069 0.30896,2.49694 0.875,3.5625 l -26.51192,22.40511 16.21357,0.74526 0.35147,-5.86248 14.29063,-13.60039 c 0.75174,0.24791 1.57147,0.375 2.40625,0.375 0.62445,0 1.23164,-0.0772 1.8125,-0.21875 l 13.5901,12.92776 0.17914,6.16079 14.95738,0.37943 -24.03912,-22.90546 c 0.7115,-1.15921 1.125,-2.5089 1.125,-3.96875 0,-4.21117 -3.41383,-7.625 -7.625,-7.625 z"
                 id="path3873"
                 style="fill:#204a87;fill-opacity:1;stroke:none" />
            </g>
          </g>
        </g>
      </g>
    </g>
  </g>
</svg>
