<?xml version="1.0" encoding="UTF-8" standalone="no"?>
<!-- Created with Inkscape (http://www.inkscape.org/) -->

<svg
   xmlns:dc="http://purl.org/dc/elements/1.1/"
   xmlns:cc="http://creativecommons.org/ns#"
   xmlns:rdf="http://www.w3.org/1999/02/22-rdf-syntax-ns#"
   xmlns:svg="http://www.w3.org/2000/svg"
   xmlns="http://www.w3.org/2000/svg"
   version="1.1"
   width="415"
   height="415"
   id="svg4955">
  <defs
     id="defs4957">
    <clipPath
       id="clipPath9836-5-4">
      <path
         d="m 152,313.36218 a 95.5,95.5 0 1 1 -191,0 95.5,95.5 0 1 1 191,0 z"
         transform="matrix(1.2950742,0,0,1.2950742,106.46257,479.81137)"
         id="path9838-6-0"
         style="fill:#aee2fc;fill-opacity:1;stroke:none;display:inline" />
    </clipPath>
  </defs>
  <metadata
     id="metadata4960">
    <rdf:RDF>
      <cc:Work
         rdf:about="">
        <dc:format>image/svg+xml</dc:format>
        <dc:type
           rdf:resource="http://purl.org/dc/dcmitype/StillImage" />
        <dc:title></dc:title>
      </cc:Work>
    </rdf:RDF>
  </metadata>
  <g
     transform="translate(0,-637.36218)"
     id="layer1">
    <g
       transform="translate(516.34692,509.65185)"
       id="g5048">
      <rect
         width="415.55096"
         height="414.98203"
         x="-516.34692"
         y="127.72831"
         id="rect5312"
         style="fill:#888a85;fill-opacity:0;stroke:none" />
      <g
         transform="matrix(1.0750547,0,0,1.0750547,-488.74644,-274.06633)"
         id="g4072"
         style="display:inline">
        <path
           d="m 152,313.36218 a 95.5,95.5 0 1 1 -191,0 95.5,95.5 0 1 1 191,0 z"
           transform="matrix(1.2267281,0,0,1.2267281,98.189867,182.452)"
           id="path3920"
           style="fill:#aee2fc;fill-opacity:1;stroke:none;display:inline" />
        <g
           transform="matrix(0.9853765,0,0,0.9853765,4.1578109,8.160339)"
           id="g9686">
          <g
             id="g9681"
             style="opacity:0.67241378">
            <path
               d="m 249.51673,488.77424 c -11.32154,0.0127 -21.66605,2.77575 -23.42413,10.19869 -3.30926,13.97257 -15.81451,-12.88116 -39.34725,6.97461 -23.53272,19.85576 -2.58959,38.26738 17.63389,37.89969 l 79.94467,1.90814 c -4.39413,-21.56868 -14.5898,-41.03772 -28.85247,-56.71794 -1.98246,-0.15284 -3.98941,-0.26541 -5.95471,-0.26319 z"
               id="path4813-1-7-5"
               style="opacity:0.4;fill:#ffffff;stroke:none;display:inline" />
            <path
               d="m 73.213784,505.85771 c -3.417052,0.0915 -7.058862,0.96316 -10.656294,2.42727 -9.082857,15.53972 -14.665657,33.3797 -15.688433,52.42305 24.780326,1.23349 56.267723,2.38248 63.671353,0.74002 12.57787,-2.79036 36.24922,-15.98081 9.91628,-29.45281 -26.332946,-13.47199 -29.423214,1.48004 -29.423214,1.48004 1.258163,-20.64811 -7.230859,-27.9011 -17.819692,-27.61757 z"
               id="path9633-8"
               style="opacity:0.38362068;fill:#ffffff;fill-opacity:1;stroke:none;display:inline" />
          </g>
        </g>
        <g
           transform="matrix(0.94722615,0,0,0.94722615,-2.6542635,-272.03789)"
           clip-path="url(#clipPath9836-5-4)"
           id="g9833"
           style="display:inline">
          <rect
             width="338.74066"
             height="32.408012"
             x="15.432376"
             y="988.31781"
             id="rect9806"
             style="fill:#8f5902;fill-opacity:1;stroke:none" />
          <g
             transform="matrix(0.95413527,0,0,0.95413527,12.533902,386.65287)"
             id="g9888"
             style="display:inline">
            <rect
               width="29.344931"
               height="140.00714"
               x="158.74547"
               y="457.33182"
               id="rect4045"
               style="fill:#eeeeec;fill-opacity:1;stroke:none" />
            <rect
               width="29.344931"
               height="140.00714"
               x="187.73685"
               y="457.33182"
               id="rect4047"
               style="fill:#d3d7cf;fill-opacity:1;stroke:none" />
            <rect
               width="29.344931"
               height="140.00714"
               x="217.08177"
               y="457.33182"
               id="rect4049"
               style="fill:#eeeeec;fill-opacity:1;stroke:none" />
            <rect
               width="29.344931"
               height="140.00714"
               x="246.4267"
               y="457.33182"
               id="rect4051"
               style="fill:#d3d7cf;fill-opacity:1;stroke:none" />
            <rect
               width="29.344931"
               height="140.00714"
               x="275.77164"
               y="457.33182"
               id="rect4053"
               style="fill:#eeeeec;fill-opacity:1;stroke:none" />
            <path
               d="m 153.02796,457.07486 0,143.1532 152.08732,0 0,-4.87388 -146.60421,0 0,-138.29622 z"
               id="path4043"
               style="fill:#babdb6;stroke:none" />
          </g>
          <rect
             width="177.87387"
             height="32.408012"
             x="176.29916"
             y="988.31781"
             id="rect9559"
             style="opacity:0.20689655;fill:#2e3436;fill-opacity:1;stroke:none" />
        </g>
        <g
           transform="matrix(0.87824584,0,0,0.87824584,13.253445,109.09615)"
           id="g3941">
          <path
             d="m 297.14843,555.67645 31.51134,-2.11405 0.43876,-0.0399 0.39888,-0.0798 36.2181,-7.85789 -2.43316,-11.24835 -35.77933,7.818 -30.83325,2.03428 -20.82141,-0.95731 -20.38266,-11.44779 -0.19943,-0.11966 -0.23933,-0.0798 -17.31129,-7.89778 -1.15675,-0.51854 -1.23652,0 -9.53318,0 -4.14833,-3.39046 -1.39607,-1.15675 -1.75506,-0.11966 -30.47426,-2.63259 -1.11686,-0.11967 -1.07697,0.35899 -27.20662,8.45082 0.16272,11.97172 29.39728,-9.1343 27.52257,2.35338 4.42754,3.62979 1.59551,1.27641 2.03428,0 10.21126,0 15.87534,7.1798 21.5394,12.0461 1.19663,0.6781 1.35618,0.0798 22.57648,1.03708 0.3191,0 0.31911,0 z"
             id="path4300"
             style="font-size:medium;font-style:normal;font-variant:normal;font-weight:normal;font-stretch:normal;text-indent:0;text-align:start;text-decoration:none;line-height:normal;letter-spacing:normal;word-spacing:normal;text-transform:none;direction:ltr;block-progression:tb;writing-mode:lr-tb;text-anchor:start;baseline-shift:baseline;color:#000000;fill:#edd400;fill-opacity:1;stroke:none;stroke-width:9;marker:none;visibility:visible;display:inline;overflow:visible;enable-background:accumulate;font-family:Sans;-inkscape-font-specification:Sans" />
          <path
             d="m 317.74058,445.76033 -35.61947,35.20426 -0.0269,0.0807 -0.0269,0.0539 -9.69286,25.87455 -25.25529,19.54727 -1.05006,0.80774 -0.64619,1.18468 -12.33156,22.34747 -18.6049,3.7156 -2.1809,0.43079 -1.45393,1.69625 -14.21619,16.58556 -38.23119,10.88863 -0.0109,11.50983 5.40776,0.0329 38.16542,-10.47678 1.88472,-0.51157 1.29239,-1.50777 14.05464,-16.39709 19.3588,-3.87715 2.93478,-0.59234 1.45393,-2.61169 13.16614,-23.8552 25.63223,-19.84344 1.45393,-1.10391 0.64619,-1.72318 10.2852,-27.43618 0.0539,-0.13462 35.33353,-35.30172 -7.50587,-9.41485 z"
             id="path4037"
             style="font-size:medium;font-style:normal;font-variant:normal;font-weight:normal;font-stretch:normal;text-indent:0;text-align:start;text-decoration:none;line-height:normal;letter-spacing:normal;word-spacing:normal;text-transform:none;direction:ltr;block-progression:tb;writing-mode:lr-tb;text-anchor:start;baseline-shift:baseline;color:#000000;fill:#4e9a06;fill-opacity:1;stroke:none;stroke-width:15;marker:none;visibility:visible;display:inline;overflow:visible;enable-background:accumulate;font-family:Sans;-inkscape-font-specification:Sans" />
        </g>
        <path
           d="m 122.9375,527.5 -29.28125,50.75 c 8.7437,15.54793 21.06665,28.81066 35.84375,38.6875 l 45.0625,0 -51.625,-89.4375 z"
           transform="matrix(1.0370475,0,0,1.0370475,-31.81146,24.523593)"
           id="path4194"
           style="fill:#6dcbfa;fill-opacity:1;stroke:none" />
        <rect
           width="32.427242"
           height="186.17682"
           x="79.473907"
           y="448.28329"
           id="rect4196"
           style="fill:#6dcbfa;fill-opacity:1;stroke:none" />
        <path
           d="m 122.9375,539.03125 -25.78125,45 c 8.41218,13.06405 19.43435,24.27776 32.34375,32.90625 l 38.09375,0 -44.65625,-77.90625 z"
           transform="matrix(1.0370475,0,0,1.0370475,-31.81146,24.523593)"
           id="path4198"
           style="fill:#8ae234;fill-opacity:1;stroke:none" />
        <rect
           width="21.333712"
           height="148.9093"
           x="85.020676"
           y="496.85767"
           id="rect4200"
           style="fill:#8ae234;fill-opacity:1;stroke:none" />
        <path
           d="m 100.38095,496.85765 5.97344,0 0,107.5219 -5.97344,0 z"
           id="rect4202"
           style="fill:#73d216;fill-opacity:1;stroke:none" />
        <path
           d="m 141.97615,664.30595 -26.66161,0 -14.9393,-59.91266 5.99358,-2.31429 z"
           id="path4204"
           style="fill:#73d216;fill-opacity:1;stroke:none" />
        <path
           d="m 221.125,616.98718 a 3.125,3.125 0 1 1 -6.25,0 3.125,3.125 0 1 1 6.25,0 z"
           transform="matrix(1.2071566,0,0,1.2071566,-175.90895,-122.5046)"
           id="path4569"
           style="fill:#4e9a06;fill-opacity:1;stroke:none" />
        <path
           d="m 221.125,616.98718 a 3.125,3.125 0 1 1 -6.25,0 3.125,3.125 0 1 1 6.25,0 z"
           transform="matrix(0.5849006,0,0,0.5849006,-34.172782,273.4704)"
           id="path4571"
           style="fill:#4e9a06;fill-opacity:1;stroke:none" />
        <path
           d="m 221.125,616.98718 a 3.125,3.125 0 1 1 -6.25,0 3.125,3.125 0 1 1 6.25,0 z"
           transform="matrix(0.70020691,0,0,0.70020691,-50.62714,119.73802)"
           id="path3948"
           style="fill:#4e9a06;fill-opacity:1;stroke:none" />
        <path
           d="m 221.125,616.98718 a 3.125,3.125 0 1 1 -6.25,0 3.125,3.125 0 1 1 6.25,0 z"
           transform="matrix(1.094853,0,0,1.094853,-144.42971,-95.447967)"
           id="path3952"
           style="fill:#4e9a06;fill-opacity:1;stroke:none" />
        <path
           d="m 221.125,616.98718 a 3.125,3.125 0 1 1 -6.25,0 3.125,3.125 0 1 1 6.25,0 z"
           transform="matrix(1.0328314,0,0,1.0328314,-133.06229,-103.51481)"
           id="path3946"
           style="fill:#4e9a06;fill-opacity:1;stroke:none" />
        <path
           d="m 221.125,616.98718 a 3.125,3.125 0 1 1 -6.25,0 3.125,3.125 0 1 1 6.25,0 z"
           transform="matrix(0.70020691,0,0,0.70020691,-63.90212,69.353416)"
           id="path3314"
           style="fill:#4e9a06;fill-opacity:1;stroke:none" />
        <rect
           width="21.333712"
           height="24.872343"
           x="85.020676"
           y="-496.85767"
           transform="scale(1,-1)"
           id="rect4226"
           style="fill:#fcaf3e;fill-opacity:1;stroke:none" />
        <path
           d="m 100.38095,496.85765 5.97344,0 0,-24.82317 -5.97344,0.008 z"
           id="path4228"
           style="fill:#f57900;fill-opacity:1;stroke:none" />
        <rect
           width="21.333712"
           height="24.721491"
           x="85.020676"
           y="-473.02304"
           transform="scale(1,-1)"
           id="rect4230"
           style="fill:#bbe7fd;fill-opacity:1;stroke:none" />
        <path
           d="m 221.125,616.98718 a 3.125,3.125 0 1 1 -6.25,0 3.125,3.125 0 1 1 6.25,0 z"
           transform="matrix(1.1952162,0,0,1.1952162,-159.47935,-287.98334)"
           id="path3954"
           style="fill:#fcaf3e;fill-opacity:1;stroke:none" />
        <path
           d="m 221.125,616.98718 a 3.125,3.125 0 1 1 -6.25,0 3.125,3.125 0 1 1 6.25,0 z"
           transform="matrix(1.2880076,0,0,1.2880076,-190.488,-354.14149)"
           id="path3956"
           style="fill:#8ae234;fill-opacity:1;stroke:none" />
        <path
           d="m 221.125,616.98718 a 3.125,3.125 0 1 1 -6.25,0 3.125,3.125 0 1 1 6.25,0 z"
           transform="matrix(2.3087124,0,0,2.3087124,-404.39632,-995.87438)"
           id="path3963"
           style="fill:#8ae234;fill-opacity:1;stroke:none" />
      </g>
    </g>
  </g>
</svg>
