<?xml version="1.0" encoding="UTF-8" standalone="no"?>
<!-- Created with Inkscape (http://www.inkscape.org/) -->

<svg
   xmlns:dc="http://purl.org/dc/elements/1.1/"
   xmlns:cc="http://creativecommons.org/ns#"
   xmlns:rdf="http://www.w3.org/1999/02/22-rdf-syntax-ns#"
   xmlns:svg="http://www.w3.org/2000/svg"
   xmlns="http://www.w3.org/2000/svg"
   version="1.1"
   width="415"
   height="415"
   id="svg3838">
  <defs
     id="defs3840">
    <clipPath
       id="clipPath9751-7">
      <path
         d="m 363.66932,324.55062 -30.52743,55.04188 12.66195,0.3469 -2.13924,3.84484 0.0867,0 -24.31209,45.50205 18.35693,0.37582 -1.53216,2.97758 -34.69025,60.65013 47.93037,0.95398 0,6.04189 0,24.13864 39.80707,0 0,-29.39999 47.81474,0.92507 -39.95161,-59.78288 0.0867,0 -3.49793,-5.31917 21.62359,0.46253 -28.04129,-46.3404 0.0578,0 -2.45723,-4.01829 14.04956,0.37581 -35.32625,-56.77639 z"
         id="path9753-8"
         style="fill:#4e9a06;fill-opacity:1;stroke:none;display:inline" />
    </clipPath>
    <clipPath
       id="clipPath3788">
      <path
         d="m 363.66932,324.55062 -30.52743,55.04188 12.66195,0.3469 -2.13924,3.84484 0.0867,0 -24.31209,45.50205 18.35693,0.37582 -1.53216,2.97758 -34.69025,60.65013 47.93037,0.95398 0,6.04189 0,24.13864 39.80707,0 0,-29.39999 47.81474,0.92507 -39.95161,-59.78288 0.0867,0 -3.49793,-5.31917 21.62359,0.46253 -28.04129,-46.3404 0.0578,0 -2.45723,-4.01829 14.04956,0.37581 -35.32625,-56.77639 z"
         id="path3790"
         style="fill:#4e9a06;fill-opacity:1;stroke:none;display:inline" />
    </clipPath>
    <clipPath
       id="clipPath3792">
      <path
         d="m 363.66932,324.55062 -30.52743,55.04188 12.66195,0.3469 -2.13924,3.84484 0.0867,0 -24.31209,45.50205 18.35693,0.37582 -1.53216,2.97758 -34.69025,60.65013 47.93037,0.95398 0,6.04189 0,24.13864 39.80707,0 0,-29.39999 47.81474,0.92507 -39.95161,-59.78288 0.0867,0 -3.49793,-5.31917 21.62359,0.46253 -28.04129,-46.3404 0.0578,0 -2.45723,-4.01829 14.04956,0.37581 -35.32625,-56.77639 z"
         id="path3794"
         style="fill:#4e9a06;fill-opacity:1;stroke:none;display:inline" />
    </clipPath>
  </defs>
  <metadata
     id="metadata3843">
    <rdf:RDF>
      <cc:Work
         rdf:about="">
        <dc:format>image/svg+xml</dc:format>
        <dc:type
           rdf:resource="http://purl.org/dc/dcmitype/StillImage" />
        <dc:title></dc:title>
      </cc:Work>
    </rdf:RDF>
  </metadata>
  <g
     transform="translate(0,-637.36218)"
     id="layer1">
    <g
       transform="translate(-37.938805,572.509)"
       id="g3947">
      <rect
         width="415.55096"
         height="414.98203"
         x="37.938805"
         y="64.871162"
         id="rect5312"
         style="fill:#888a85;fill-opacity:0;stroke:none" />
      <g
         transform="matrix(1.0894357,0,0,1.0894357,-254.98933,-178.1256)"
         id="g4774"
         style="display:inline">
        <path
           d="m 610.94025,648.95776 a 100.05561,100.05561 0 1 1 -200.11122,0 100.05561,100.05561 0 1 1 200.11122,0 z"
           transform="matrix(1.1570112,0,0,1.1570112,-131.34783,-337.32801)"
           id="path4720"
           style="fill:#aee2fc;fill-opacity:1;stroke:none" />
        <path
           d="m 359.84524,390.48912 c 0,0 37.634,3.27253 49.90596,2.4544 12.27195,-0.81813 21.2714,-2.86346 18.40794,-7.36318 -2.86346,-4.49971 -11.45383,-9.81756 -15.54448,-5.31784 -4.09066,4.49972 4.49971,-10.22663 -7.77224,-12.68103 -12.27196,-2.45439 -18.40794,8.18131 -17.18074,11.45383 1.22719,3.27253 -15.95354,-5.72692 -18.40793,1.63626 -2.45439,7.36317 -6.95412,-3.27252 -12.27196,0.40907 -5.31785,3.68159 -3.27252,10.22663 2.86345,9.40849 z"
           id="path4910"
           style="opacity:0.4;fill:#ffffff;fill-opacity:1;stroke:none" />
        <path
           d="m 473.32398,361.6689 58.1638,1.39912 c 0,0 23.18556,-0.59962 9.39415,-11.3929 -13.79142,-10.79329 -21.98631,-5.59652 -21.98631,-5.59652 0,0 0.79949,-8.1949 -6.39603,-11.59279 -7.19552,-3.39788 -25.58407,-4.79701 -27.38296,2.79827 -1.79888,7.59527 -8.59464,-6.99565 -21.38668,3.79763 -12.79204,10.79328 -1.39913,20.78706 9.59403,20.58719 z"
           id="path4756"
           style="opacity:0.4;fill:#ffffff;fill-opacity:1;stroke:none" />
        <path
           d="m 500.19951,346.42946 c -10.96819,-0.18516 -9.3492,10.46172 -16.9936,16.77667 -0.72058,0.59525 -8.40171,-0.48712 -9.18378,0.25309 -9.42927,8.92462 -12.80145,19.33054 -20.35617,23.86336 -8.18129,4.90878 -11.81898,15.44948 -30.22691,0.72313 -2.38286,-1.90628 -4.86703,-5.00675 -5.92969,-6.94207 -1.60143,-2.91657 -6.2021,3.15591 -6.94206,2.78406 -11.59085,-5.82478 -28.59164,6.24567 -37.96443,16.95745 -10.47915,11.97617 -25.90968,8.24969 -28.49141,7.52057 -0.0751,1.71137 -0.10841,3.44052 -0.10841,5.17039 0,63.93551 51.80178,115.73728 115.73728,115.73728 63.9355,0 115.77343,-51.80177 115.77343,-115.73728 -7.83474,3.94145 -27.98711,-29.00733 -52.24046,-53.25364 -7.01739,-6.92558 -13.11803,-13.5975 -23.07373,-13.85301 z"
           id="path4905"
           style="fill:#8ae234;fill-opacity:1;stroke:none" />
        <path
           d="m 447.73628,392.02294 -2.31402,1.73551 49.17298,88.80061 8.09907,-0.5785 16.55973,30.84158 c 16.52426,-9.92112 30.38789,-23.83212 40.20614,-40.42308 l -35.36116,-19.92229 -0.86776,-6.94207 -75.49498,-53.51176 z"
           id="path5047"
           style="fill:#8f5902;stroke:none;display:inline" />
        <path
           d="m 412.37513,307.88653 c -12.92057,5.80454 -24.60934,13.90698 -34.4934,23.79104 3.19215,0.50184 6.82492,0.8937 10.77467,1.15701 14.8233,0.98822 60.30921,-2.96484 60.30921,-2.96484 7.41165,0.98823 9.85832,-6.90618 3.43487,-11.35317 -6.42342,-4.44699 -11.85954,8.38779 -14.8242,-0.50619 -2.96466,-8.89398 -23.71864,2.00042 -22.23631,-1.95246 0.64298,-1.71463 -0.38194,-5.12623 -2.96484,-8.17139 z"
           id="path5114"
           style="opacity:0.4;fill:#ffffff;fill-opacity:1;stroke:none" />
        <g
           clip-path="url(#clipPath9751-7)"
           id="g9740">
          <g
             transform="matrix(1.8507256,0,0,1.8507256,-391.58372,-476.91738)"
             id="g5125">
            <path
               d="m 391.59136,462.80329 16.49932,-29.74578 19.08836,30.67952 z"
               id="path5092"
               style="fill:#4e9a06;fill-opacity:1;stroke:none" />
            <path
               d="m 384.1856,489.64326 24.00279,-44.90371 27.83441,45.99729 z"
               id="path5094"
               style="fill:#4e9a06;fill-opacity:1;stroke:none" />
            <rect
               width="21.514906"
               height="23.596992"
               rx="0"
               ry="0"
               x="400.42389"
               y="517.45514"
               id="rect5098"
               style="fill:#c17d11;fill-opacity:1;stroke:none" />
            <rect
               width="21.514906"
               height="10.556243"
               rx="0"
               ry="0"
               x="400.42389"
               y="517.45514"
               id="rect3963"
               style="fill:#8f5902;fill-opacity:1;stroke:none" />
            <path
               d="m 374.54051,524.23223 33.31989,-58.2928 39.92227,59.722 z"
               id="path5096"
               style="fill:#4e9a06;fill-opacity:1;stroke:none" />
            <path
               d="m 398.61119,462.65602 -1.32847,2.40299 23.61956,0.6447 -1.38709,-2.26623 z"
               id="path3951"
               style="fill:#326204;fill-opacity:1;stroke:none" />
            <path
               d="m 394.23538,489.62164 -1.44468,2.76307 33.43829,0.98177 -1.93711,-2.94229 z"
               id="path3961"
               style="fill:#326204;fill-opacity:1;stroke:none" />
            <rect
               width="51.602661"
               height="131.8342"
               x="395.0249"
               y="439.46298"
               transform="matrix(0.99956022,-0.02965398,0.02965398,0.99956022,0,0)"
               id="rect9697"
               style="opacity:0.07758622;fill:#2e3436;fill-opacity:1;stroke:none" />
          </g>
        </g>
        <g
           transform="matrix(0.55116842,0,0,0.55116842,332.12258,154.22985)"
           clip-path="url(#clipPath9751-7)"
           id="g9755">
          <g
             transform="matrix(1.8507256,0,0,1.8507256,-391.58372,-476.91738)"
             id="g9757">
            <path
               d="m 391.59136,462.80329 16.49932,-29.74578 19.08836,30.67952 z"
               id="path9759"
               style="fill:#4e9a06;fill-opacity:1;stroke:none" />
            <path
               d="m 384.1856,489.64326 24.00279,-44.90371 27.83441,45.99729 z"
               id="path9761"
               style="fill:#4e9a06;fill-opacity:1;stroke:none" />
            <rect
               width="21.514906"
               height="23.596992"
               rx="0"
               ry="0"
               x="400.42389"
               y="517.45514"
               id="rect9763"
               style="fill:#c17d11;fill-opacity:1;stroke:none" />
            <rect
               width="21.514906"
               height="10.556243"
               rx="0"
               ry="0"
               x="400.42389"
               y="517.45514"
               id="rect9765"
               style="fill:#8f5902;fill-opacity:1;stroke:none" />
            <path
               d="m 374.54051,524.23223 33.31989,-58.2928 39.92227,59.722 z"
               id="path9767"
               style="fill:#4e9a06;fill-opacity:1;stroke:none" />
            <path
               d="m 398.61119,462.65602 -1.32847,2.40299 23.61956,0.6447 -1.38709,-2.26623 z"
               id="path9769"
               style="fill:#326204;fill-opacity:1;stroke:none" />
            <path
               d="m 394.23538,489.62164 -1.44468,2.76307 33.43829,0.98177 -1.93711,-2.94229 z"
               id="path9771"
               style="fill:#326204;fill-opacity:1;stroke:none" />
            <rect
               width="103.23759"
               height="263.75082"
               x="63.63961"
               y="34.835529"
               transform="matrix(0.49984372,0,0,0.49984372,376.20417,410.14138)"
               id="rect9773"
               style="opacity:0.07758622;fill:#2e3436;fill-opacity:1;stroke:none" />
          </g>
        </g>
        <g
           transform="matrix(0.30986112,0,0,0.30986112,368.92105,245.21458)"
           clip-path="url(#clipPath9751-7)"
           id="g9775">
          <g
             transform="matrix(1.8507256,0,0,1.8507256,-391.58372,-476.91738)"
             id="g9777">
            <path
               d="m 391.59136,462.80329 16.49932,-29.74578 19.08836,30.67952 z"
               id="path9779"
               style="fill:#4e9a06;fill-opacity:1;stroke:none" />
            <path
               d="m 384.1856,489.64326 24.00279,-44.90371 27.83441,45.99729 z"
               id="path9781"
               style="fill:#4e9a06;fill-opacity:1;stroke:none" />
            <rect
               width="21.514906"
               height="23.596992"
               rx="0"
               ry="0"
               x="400.42389"
               y="517.45514"
               id="rect9783"
               style="fill:#c17d11;fill-opacity:1;stroke:none" />
            <rect
               width="21.514906"
               height="10.556243"
               rx="0"
               ry="0"
               x="400.42389"
               y="517.45514"
               id="rect9785"
               style="fill:#8f5902;fill-opacity:1;stroke:none" />
            <path
               d="m 374.54051,524.23223 33.31989,-58.2928 39.92227,59.722 z"
               id="path9787"
               style="fill:#4e9a06;fill-opacity:1;stroke:none" />
            <path
               d="m 398.61119,462.65602 -1.32847,2.40299 23.61956,0.6447 -1.38709,-2.26623 z"
               id="path9789"
               style="fill:#326204;fill-opacity:1;stroke:none" />
            <path
               d="m 394.23538,489.62164 -1.44468,2.76307 33.43829,0.98177 -1.93711,-2.94229 z"
               id="path9791"
               style="fill:#326204;fill-opacity:1;stroke:none" />
            <rect
               width="103.23759"
               height="263.75082"
               x="63.63961"
               y="34.835529"
               transform="matrix(0.49984372,0,0,0.49984372,376.20417,410.14138)"
               id="rect9793"
               style="opacity:0.07758622;fill:#2e3436;fill-opacity:1;stroke:none" />
          </g>
        </g>
        <g
           transform="matrix(1.0986285,0.36289167,-0.36289167,1.0986285,151.2456,-452.99936)"
           id="g4758">
          <path
             d="m 501.25,435.6875 c -7.99156,-0.0918 -16.10808,1.37466 -23.96875,4.59375 -31.44267,12.87636 -46.50135,48.80734 -33.625,80.25 12.87636,31.44267 48.80734,46.50136 80.25,33.625 31.44267,-12.87636 46.50136,-48.80734 33.625,-80.25 -9.65727,-23.582 -32.30658,-37.94335 -56.28125,-38.21875 z m -0.0937,10.59375 c 19.84499,0.22842 38.56918,12.1374 46.5625,31.65625 10.65778,26.02511 -1.81862,55.74848 -27.84375,66.40625 -26.02511,10.65778 -55.74848,-1.78738 -66.40625,-27.8125 -10.65778,-26.02512 1.78737,-55.77974 27.8125,-66.4375 6.50628,-2.66445 13.26,-3.88864 19.875,-3.8125 z"
             transform="matrix(0.94954007,-0.31364577,0.31364577,0.94954007,-134.71425,325.8955)"
             id="path4914"
             style="fill:#2e3436;fill-opacity:1;stroke:none" />
          <rect
             width="21.566757"
             height="58.89357"
             rx="4.5961943"
             ry="4.7307172"
             x="-50.025429"
             y="866.46613"
             transform="matrix(0.75984918,-0.6500994,0.6500994,0.75984918,0,0)"
             id="rect4727"
             style="fill:#2e3436;fill-opacity:1;stroke:none" />
          <path
             d="m 516.5625,453.15625 c -7.34246,-0.0845 -14.84071,1.26128 -22.0625,4.21875 -28.60785,11.71543 -42.4128,44.22147 -31.1875,72.90625 14.83214,9.08903 33.6314,11.25623 50.96875,4.15625 28.61692,-11.71915 42.46287,-44.21545 31.21875,-72.90625 -8.65817,-5.31399 -18.65001,-8.25659 -28.9375,-8.375 z"
             transform="matrix(0.85546277,-0.28257078,0.28257078,0.85546277,-88.805213,350.78817)"
             id="path4088"
             style="opacity:0.29741378;fill:#eeeeec;fill-opacity:1;stroke:none" />
        </g>
      </g>
    </g>
  </g>
</svg>
