<?xml version="1.0" encoding="UTF-8" standalone="no"?>
<!-- Created with Inkscape (http://www.inkscape.org/) -->

<svg
   xmlns:dc="http://purl.org/dc/elements/1.1/"
   xmlns:cc="http://creativecommons.org/ns#"
   xmlns:rdf="http://www.w3.org/1999/02/22-rdf-syntax-ns#"
   xmlns:svg="http://www.w3.org/2000/svg"
   xmlns="http://www.w3.org/2000/svg"
   version="1.1"
   width="415"
   height="415"
   id="svg6283">
  <defs
     id="defs6285">
    <clipPath
       id="clipPath4214">
      <path
         d="m 152,313.36218 a 95.5,95.5 0 1 1 -191,0 95.5,95.5 0 1 1 191,0 z"
         transform="matrix(1.6492147,0,0,1.6492147,74.319372,-141.43932)"
         id="path4216"
         style="fill:#cfffcf;fill-opacity:1;stroke:none" />
    </clipPath>
    <clipPath
       id="clipPath4305">
      <path
         d="m 134.09375,189.71875 0,230.9375 -11.1875,0 -74.21875,128.5625 18.375,0 67.03125,-116.125 0,116.125 18.375,0 0,-114.9375 66.375,114.9375 18.375,0 -74.25,-128.5625 -10.5,0 0,-230.9375 -18.375,0 z"
         id="path4307"
         style="fill:#ffc022;fill-opacity:1;stroke:none" />
    </clipPath>
    <clipPath
       id="clipPath6210">
      <path
         d="m 152,313.36218 a 95.5,95.5 0 1 1 -191,0 95.5,95.5 0 1 1 191,0 z"
         transform="matrix(1.6492147,0,0,1.6492147,74.319372,-141.43932)"
         id="path6212"
         style="fill:#cfffcf;fill-opacity:1;stroke:none" />
    </clipPath>
    <clipPath
       id="clipPath4477">
      <path
         d="m 152,313.36218 a 95.5,95.5 0 1 1 -191,0 95.5,95.5 0 1 1 191,0 z"
         transform="matrix(1.5631499,0.52580545,-0.52580545,1.5631499,437.15403,-36.630983)"
         id="path4479"
         style="fill:#c6ffba;fill-opacity:1;stroke:none" />
    </clipPath>
    <clipPath
       id="clipPath6216">
      <path
         d="m 134.09375,189.71875 0,230.9375 -11.1875,0 -74.21875,128.5625 18.375,0 67.03125,-116.125 0,116.125 18.375,0 0,-114.9375 66.375,114.9375 18.375,0 -74.25,-128.5625 -10.5,0 0,-230.9375 -18.375,0 z"
         id="path6218"
         style="fill:#ffc022;fill-opacity:1;stroke:none" />
    </clipPath>
    <clipPath
       id="clipPath9555">
      <path
         d="m 134.09217,189.7296 0,22.85842 -44.353912,0 0,-2.53117 -4.010933,0 0,-9.26798 -12.928444,0 0,9.26798 -3.971992,0 0,2.53117 -11.565505,0 0,208.06229 65.654686,0 -0.0389,0.0389 -9.11221,0 0,6.5421 5.33493,0 -70.405508,122.00246 18.341257,0 31.814876,-55.10165 35.241695,0 0,35.20275 c 5.99931,1.29444 12.14888,2.25251 18.3802,2.8427 l 0,-38.04545 34.54075,0 19.54843,33.87875 c 5.30479,-1.35371 10.50257,-2.9906 15.57644,-4.86764 l -55.3353,-95.91192 7.43775,0 0,-6.5421 -11.21504,0 -0.0389,-0.0389 60.67023,0 29.28371,87.03335 c 1.84211,-1.19179 3.66463,-2.4361 5.45175,-3.69941 0.89356,-0.63165 1.76846,-1.2587 2.64799,-1.90811 0.23186,-0.17119 0.47008,-0.33381 0.70094,-0.50624 0.64594,-0.48323 1.26991,-0.98689 1.90812,-1.47976 0.86531,-0.66708 1.7192,-1.34026 2.57011,-2.02493 0.48328,-0.38887 0.96224,-0.77372 1.44082,-1.16824 0.36201,-0.29885 0.73107,-0.59362 1.09035,-0.89564 0.0559,-0.0469 0.0999,-0.10875 0.15577,-0.15577 0.7795,-0.65634 1.56983,-1.31449 2.33646,-1.98599 0.61434,-0.53811 1.22425,-1.08771 1.83023,-1.63553 0.20481,-0.18523 0.41923,-0.35888 0.62306,-0.54517 L 244.21759,404.0614 c -0.40616,-1.20744 -0.97112,-2.3271 -1.67447,-3.31 13.36947,-15.14998 6.37783,-41.90732 -13.23997,-66.86186 l 0,-121.30152 -14.56397,0 0,-2.53117 -3.97199,0 0,-9.26798 -12.96739,0 0,9.26798 -3.97199,0 0,2.53117 -41.3165,0 0,-3.0374 -0.0389,0 0,-19.82102 -18.3802,0 z m 0,243.38186 0,42.6405 -24.61078,0 24.61078,-42.6405 z m 18.3802,1.16823 2.72587,4.75081 21.2229,36.72146 -23.94877,0 0,-41.47227 z"
         id="path9557"
         style="fill:#ff9900;fill-opacity:1;stroke:none" />
    </clipPath>
  </defs>
  <metadata
     id="metadata6288">
    <rdf:RDF>
      <cc:Work
         rdf:about="">
        <dc:format>image/svg+xml</dc:format>
        <dc:type
           rdf:resource="http://purl.org/dc/dcmitype/StillImage" />
        <dc:title></dc:title>
      </cc:Work>
    </rdf:RDF>
  </metadata>
  <g
     transform="translate(0,-637.36218)"
     id="layer1">
    <g
       transform="translate(610.63263,678.22327)"
       id="g6442">
      <rect
         width="415.55096"
         height="414.98203"
         x="-610.63263"
         y="-40.843117"
         id="rect5312"
         style="fill:#888a85;fill-opacity:0;stroke:none" />
      <g
         transform="matrix(0.80175542,0,0,0.80175542,-537.15017,-134.26536)"
         id="g4481"
         style="display:inline">
        <path
           d="m 152,313.36218 a 95.5,95.5 0 1 1 -191,0 95.5,95.5 0 1 1 191,0 z"
           transform="matrix(1.6492147,0,0,1.6492147,74.319372,-141.43932)"
           id="path4173"
           style="fill:#aee2fc;fill-opacity:1;stroke:none" />
        <path
           d="m 276.50716,267.86339 c -14.89395,0.0167 -28.50256,3.65163 -30.8154,13.41681 -4.35347,18.38149 -20.80465,-16.9457 -51.76294,9.17538 -30.95826,26.12108 -3.4067,50.34233 23.19811,49.85861 l 105.17051,2.51024 c -5.78065,-28.3745 -19.19347,-53.98682 -37.9566,-74.6148 -2.60802,-0.20106 -5.24824,-0.34916 -7.83368,-0.34624 z"
           id="path4813-1"
           style="opacity:0.4;fill:#ffffff;stroke:none;display:inline" />
        <rect
           width="18.36816"
           height="201.00821"
           x="134.10014"
           y="189.71796"
           id="rect4120-7"
           style="fill:#ff9900;fill-opacity:1;stroke:none" />
        <path
           d="m 64.608054,398.04976 c -14.893938,0.0168 -28.502557,3.65164 -30.815386,13.41682 -2.510006,10.59789 -9.068581,3.38071 -20.081941,0.34625 5.323557,22.03187 15.26521,42.24682 28.737948,59.59662 l 103.569155,2.46696 c 0,0 56.09892,-1.44832 22.72202,-27.56939 -33.37695,-26.1211 -53.23445,-13.54666 -53.23445,-13.54666 0,0 1.96312,-19.82216 -15.45098,-28.04547 -8.162819,-3.85465 -22.304657,-6.67996 -35.446366,-6.66513 z"
           id="path4756-4-3"
           style="opacity:0.4;fill:#ffffff;stroke:none;display:inline" />
        <path
           d="m 180.36068,475.75351 13.60604,18.36816 -101.36503,0 13.60604,-18.36816 z"
           id="rect4126"
           style="fill:#c17d11;fill-opacity:1;stroke:none" />
        <g
           clip-path="url(#clipPath4214)"
           id="g4207">
          <rect
             width="18.368164"
             height="282.71756"
             x="134.10014"
             y="266.50864"
             id="rect4120"
             style="fill:#fcaf3e;fill-opacity:1;stroke:none" />
          <g
             id="g4177"
             style="fill:#fcaf3e">
            <rect
               width="18.36816"
               height="148.46805"
               x="79.889427"
               y="485.72366"
               transform="matrix(-1,0,0.5,0.8660254,0,0)"
               id="rect4124"
               style="fill:#fcaf3e;fill-opacity:1;stroke:none" />
          </g>
        </g>
        <rect
           width="18.36816"
           height="148.46805"
           x="365.77753"
           y="485.72366"
           transform="matrix(1,0,-0.5,0.8660254,0,0)"
           id="rect4122"
           style="fill:#fcaf3e;fill-opacity:1;stroke:none" />
        <rect
           width="172.01915"
           height="208.05817"
           x="57.274635"
           y="-420.64902"
           transform="scale(1,-1)"
           id="rect4129"
           style="fill:#fcaf3e;fill-opacity:1;stroke:none" />
        <rect
           width="156.58989"
           height="177.8723"
           x="64.989265"
           y="-400.4819"
           transform="scale(1,-1)"
           id="rect4157"
           style="fill:#ffffff;fill-opacity:1;stroke:none" />
        <rect
           width="146.80954"
           height="170.37909"
           x="69.87944"
           y="-395.77142"
           transform="scale(1,-1)"
           id="rect4145"
           style="fill:#8ae234;fill-opacity:1;stroke:none" />
        <rect
           width="20.911081"
           height="18.18355"
           x="68.817177"
           y="210.05769"
           id="rect4131"
           style="fill:#2e3436;fill-opacity:1;stroke:none" />
        <rect
           width="12.938732"
           height="11.251071"
           x="72.803352"
           y="-212.05768"
           transform="scale(1,-1)"
           id="rect4133"
           style="fill:#555753;fill-opacity:1;stroke:none" />
        <path
           d="m 214.7365,256.86243 c -12.05504,0.35789 -29.42325,4.24588 -36.31351,22.30951 -11.02442,28.90184 -6.2571,39.92624 -0.29796,49.46087 5.95914,9.53462 24.73043,42.9058 -18.47333,54.82408 -43.20376,11.91827 -76.872903,-36.64871 -76.872903,-36.64871 l -12.886641,-18.36159 0,67.33827 146.781064,0 0,-138.92243 c -0.6446,-2.5e-4 -1.25537,-0.0202 -1.93672,0 z"
           id="path4147"
           style="fill:#3465a4;fill-opacity:1;stroke:none" />
        <path
           d="m 147.5,388.11218 a 13.5,13.5 0 1 1 -27,0 13.5,13.5 0 1 1 27,0 z"
           transform="matrix(2.0265824,0,0,1.4288823,-126.14246,-195.64601)"
           id="path4159"
           style="fill:#4e9a06;fill-opacity:1;stroke:none" />
        <rect
           width="27.644079"
           height="39.53746"
           x="79.295357"
           y="234.89163"
           id="rect4161"
           style="fill:#8f5902;fill-opacity:1;stroke:none" />
        <g
           transform="translate(0,-7.3566676)"
           id="g4094"
           style="fill:#c17d11">
          <rect
             width="19.286566"
             height="8.6789551"
             x="232.76573"
             y="-200.96146"
             transform="matrix(0,1,-1,0,0,0)"
             id="rect4165"
             style="fill:#c17d11;fill-opacity:1;stroke:none" />
          <path
             d="m 114.51069,232.74738 0,54.97307 -44.618534,0 0,15.49376 60.112314,0 0,-70.46683 z"
             id="path4149"
             style="fill:#c17d11;fill-opacity:1;stroke:none" />
          <rect
             width="87.904846"
             height="8.6789551"
             x="128.79755"
             y="247.06995"
             id="rect4163"
             style="fill:#c17d11;fill-opacity:1;stroke:none" />
          <rect
             width="60.685013"
             height="8.6789551"
             x="296.81805"
             y="-148.96321"
             transform="matrix(0,1,-1,0,0,0)"
             id="rect4167"
             style="fill:#c17d11;fill-opacity:1;stroke:none" />
          <rect
             width="38.560249"
             height="7.5739956"
             x="-148.95522"
             y="-303.22195"
             transform="scale(-1,-1)"
             id="rect4169"
             style="fill:#c17d11;fill-opacity:1;stroke:none" />
        </g>
        <rect
           width="60.5"
           height="6.5735388"
           x="113.75"
           y="420.67468"
           clip-path="url(#clipPath4305)"
           id="rect4284"
           style="opacity:0.42857145;fill:#ce5c00;fill-opacity:1;stroke:none" />
        <rect
           width="18.375"
           height="3"
           x="134.125"
           y="209.56908"
           id="rect4309"
           style="opacity:0.42857145;fill:#ce5c00;fill-opacity:1;stroke:none" />
        <rect
           width="20.911081"
           height="18.18355"
           x="193.82909"
           y="210.05769"
           id="rect4141"
           style="fill:#2e3436;fill-opacity:1;stroke:none" />
        <rect
           width="12.938732"
           height="11.251071"
           x="197.81525"
           y="-212.05768"
           transform="scale(1,-1)"
           id="rect4143"
           style="fill:#555753;fill-opacity:1;stroke:none" />
        <rect
           width="18.36816"
           height="201.00821"
           x="134.10014"
           y="189.71796"
           id="rect9254"
           style="fill:#ff9900;fill-opacity:1;stroke:none" />
        <path
           d="m 180.36068,475.75351 13.60604,18.36816 -101.36503,0 13.60604,-18.36816 z"
           id="path9256"
           style="fill:#c17d11;fill-opacity:1;stroke:none" />
        <g
           clip-path="url(#clipPath4214)"
           id="g9258">
          <rect
             width="18.368164"
             height="282.71756"
             x="134.10014"
             y="266.50864"
             id="rect9260"
             style="fill:#fcaf3e;fill-opacity:1;stroke:none" />
          <g
             id="g9262"
             style="fill:#fcaf3e">
            <rect
               width="18.36816"
               height="148.46805"
               x="79.889427"
               y="485.72366"
               transform="matrix(-1,0,0.5,0.8660254,0,0)"
               id="rect9264"
               style="fill:#fcaf3e;fill-opacity:1;stroke:none" />
          </g>
        </g>
        <rect
           width="18.36816"
           height="148.46805"
           x="365.77753"
           y="485.72366"
           transform="matrix(1,0,-0.5,0.8660254,0,0)"
           id="rect9266"
           style="fill:#fcaf3e;fill-opacity:1;stroke:none" />
        <rect
           width="172.01915"
           height="208.05817"
           x="57.274635"
           y="-420.64902"
           transform="scale(1,-1)"
           id="rect9268"
           style="fill:#fcaf3e;fill-opacity:1;stroke:none" />
        <rect
           width="156.58989"
           height="177.8723"
           x="64.989265"
           y="-400.4819"
           transform="scale(1,-1)"
           id="rect9270"
           style="fill:#ffffff;fill-opacity:1;stroke:none" />
        <rect
           width="146.80954"
           height="170.37909"
           x="69.87944"
           y="-395.77142"
           transform="scale(1,-1)"
           id="rect9272"
           style="fill:#8ae234;fill-opacity:1;stroke:none" />
        <rect
           width="20.911081"
           height="18.18355"
           x="68.817177"
           y="210.05769"
           id="rect9274"
           style="fill:#2e3436;fill-opacity:1;stroke:none" />
        <rect
           width="12.938732"
           height="11.251071"
           x="72.803352"
           y="-212.05768"
           transform="scale(1,-1)"
           id="rect9276"
           style="fill:#555753;fill-opacity:1;stroke:none" />
        <path
           d="m 214.7365,256.86243 c -12.05504,0.35789 -29.42325,4.24588 -36.31351,22.30951 -11.02442,28.90184 -6.2571,39.92624 -0.29796,49.46087 5.95914,9.53462 24.73043,42.9058 -18.47333,54.82408 -43.20376,11.91827 -76.872903,-36.64871 -76.872903,-36.64871 l -12.886641,-18.36159 0,67.33827 146.781064,0 0,-138.92243 c -0.6446,-2.5e-4 -1.25537,-0.0202 -1.93672,0 z"
           id="path9278"
           style="fill:#3465a4;fill-opacity:1;stroke:none" />
        <path
           d="m 147.5,388.11218 a 13.5,13.5 0 1 1 -27,0 13.5,13.5 0 1 1 27,0 z"
           transform="matrix(2.0265824,0,0,1.4288823,-126.14246,-195.64601)"
           id="path9280"
           style="fill:#4e9a06;fill-opacity:1;stroke:none" />
        <rect
           width="27.644079"
           height="39.53746"
           x="79.295357"
           y="234.89163"
           id="rect9282"
           style="fill:#8f5902;fill-opacity:1;stroke:none" />
        <g
           transform="translate(0,-7.3566676)"
           id="g9284"
           style="fill:#c17d11">
          <rect
             width="19.286566"
             height="8.6789551"
             x="232.76573"
             y="-200.96146"
             transform="matrix(0,1,-1,0,0,0)"
             id="rect9286"
             style="fill:#c17d11;fill-opacity:1;stroke:none" />
          <path
             d="m 114.51069,232.74738 0,54.97307 -44.618534,0 0,15.49376 60.112314,0 0,-70.46683 z"
             id="path9288"
             style="fill:#c17d11;fill-opacity:1;stroke:none" />
          <rect
             width="87.904846"
             height="8.6789551"
             x="128.79755"
             y="247.06995"
             id="rect9290"
             style="fill:#c17d11;fill-opacity:1;stroke:none" />
          <rect
             width="60.685013"
             height="8.6789551"
             x="296.81805"
             y="-148.96321"
             transform="matrix(0,1,-1,0,0,0)"
             id="rect9292"
             style="fill:#c17d11;fill-opacity:1;stroke:none" />
          <rect
             width="38.560249"
             height="7.5739956"
             x="-148.95522"
             y="-303.22195"
             transform="scale(-1,-1)"
             id="rect9294"
             style="fill:#c17d11;fill-opacity:1;stroke:none" />
        </g>
        <g
           transform="matrix(0.94781471,-0.31882171,0.31882171,0.94781471,-328.3429,32.654261)"
           clip-path="url(#clipPath4477)"
           id="g4470">
          <path
             d="m 404.42972,414.79124 c 0,0 7.85601,36.82395 -13.35522,60.39128 -21.21122,23.56732 -2.3568,69.9655 29.06724,57.44535 31.42404,-12.52013 21.99682,-72.91141 -15.71202,-117.83663 z"
             id="path4459"
             style="fill:#c4a000;fill-opacity:1;stroke:none" />
          <path
             d="m 404.42972,414.80068 c 0,0 7.85601,36.82395 -13.35522,60.39128 -6.82958,7.5882 -9.4961,17.54143 -8.93621,27.13464 6.79272,8.48659 17.27924,12.81863 29.75464,7.84811 18.62148,-7.41927 22.89546,-31.65662 15.44197,-59.51671 -5.70777,-12.25971 -13.41202,-24.54745 -22.90518,-35.85732 z"
             id="path4461"
             style="fill:#fce94f;stroke:none" />
          <rect
             width="24.748932"
             height="609.52795"
             rx="12.374466"
             ry="12.374466"
             x="399.51538"
             y="-1131.7181"
             transform="scale(1,-1)"
             id="rect4468"
             style="fill:#8f5902;fill-opacity:1;stroke:none" />
        </g>
        <rect
           width="60.5"
           height="6.5735388"
           x="113.75"
           y="420.67468"
           clip-path="url(#clipPath4305)"
           id="rect9296"
           style="opacity:0.42857145;fill:#ce5c00;fill-opacity:1;stroke:none" />
        <rect
           width="18.375"
           height="3"
           x="134.125"
           y="209.56908"
           id="rect9298"
           style="opacity:0.42857145;fill:#ce5c00;fill-opacity:1;stroke:none" />
        <rect
           width="20.911081"
           height="18.18355"
           x="193.82909"
           y="210.05769"
           id="rect9308"
           style="fill:#2e3436;fill-opacity:1;stroke:none" />
        <rect
           width="12.938732"
           height="11.251071"
           x="197.81525"
           y="-212.05768"
           transform="scale(1,-1)"
           id="rect9310"
           style="fill:#555753;fill-opacity:1;stroke:none" />
        <g
           clip-path="url(#clipPath9555)"
           id="g9552">
          <rect
             width="201.24759"
             height="406.8566"
             rx="0"
             ry="0"
             x="143.43803"
             y="147.15102"
             id="rect9544"
             style="opacity:0.08189655;fill:#2e3436;fill-opacity:1;stroke:none" />
        </g>
      </g>
    </g>
  </g>
</svg>
