<?xml version="1.0" encoding="UTF-8" standalone="no"?>
<!-- Created with Inkscape (http://www.inkscape.org/) -->

<svg
   xmlns:dc="http://purl.org/dc/elements/1.1/"
   xmlns:cc="http://creativecommons.org/ns#"
   xmlns:rdf="http://www.w3.org/1999/02/22-rdf-syntax-ns#"
   xmlns:svg="http://www.w3.org/2000/svg"
   xmlns="http://www.w3.org/2000/svg"
   version="1.1"
   width="415"
   height="415"
   id="svg4641">
  <defs
     id="defs4643">
    <clipPath
       id="clipPath7789-1">
      <path
         d="m 152,313.36218 a 95.5,95.5 0 1 1 -191,0 95.5,95.5 0 1 1 191,0 z"
         transform="matrix(1.1829045,0,0,1.1829045,408.35716,522.28657)"
         id="path7791-8"
         style="fill:#e4f0fc;fill-opacity:1;stroke:none;display:inline" />
    </clipPath>
    <clipPath
       id="clipPath4317-7">
      <path
         d="m 152,313.36218 a 95.5,95.5 0 1 1 -191,0 95.5,95.5 0 1 1 191,0 z"
         transform="matrix(0.98264483,0,0,0.98264483,409.02892,576.86402)"
         id="path4319-1"
         style="fill:#aee2fc;fill-opacity:1;stroke:none;display:inline" />
    </clipPath>
    <clipPath
       id="clipPath4581">
      <path
         d="m 152,313.36218 a 95.5,95.5 0 1 1 -191,0 95.5,95.5 0 1 1 191,0 z"
         transform="matrix(0.98264483,0,0,0.98264483,409.02892,576.86402)"
         id="path4583"
         style="fill:#aee2fc;fill-opacity:1;stroke:none;display:inline" />
    </clipPath>
  </defs>
  <metadata
     id="metadata4646">
    <rdf:RDF>
      <cc:Work
         rdf:about="">
        <dc:format>image/svg+xml</dc:format>
        <dc:type
           rdf:resource="http://purl.org/dc/dcmitype/StillImage" />
        <dc:title></dc:title>
      </cc:Work>
    </rdf:RDF>
  </metadata>
  <g
     transform="translate(0,-637.36218)"
     id="layer1">
    <g
       transform="translate(-346.51022,69.651822)"
       id="g4778">
      <rect
         width="415.55096"
         height="414.98203"
         x="346.51022"
         y="567.72833"
         id="rect5312"
         style="fill:#888a85;fill-opacity:0;stroke:none" />
      <g
         transform="matrix(1.116394,0,0,1.116394,24.128132,-221.69394)"
         id="g7967"
         style="display:inline">
        <path
           d="m 152,313.36218 a 95.5,95.5 0 1 1 -191,0 95.5,95.5 0 1 1 191,0 z"
           transform="matrix(1.1829045,0,0,1.1829045,408.35716,522.28657)"
           id="path4161"
           style="fill:#aee2fc;fill-opacity:1;stroke:none;display:inline" />
        <path
           d="m 553.07729,816.47515 c -10.88552,0.0122 -20.83163,2.66885 -22.522,9.80591 -3.18181,13.43445 -15.20545,-12.38506 -37.83188,6.706 -22.62641,19.09106 -2.48985,36.7936 16.95476,36.44007 l 76.86577,1.83465 c -4.22489,-20.73801 -14.0279,-39.45724 -27.74127,-54.53358 -1.90612,-0.14694 -3.83577,-0.25518 -5.72538,-0.25305 z"
           id="path4813-1-7-8"
           style="opacity:0.4;fill:#ffffff;stroke:none;display:inline" />
        <g
           clip-path="url(#clipPath7789-1)"
           id="g7786" />
        <path
           d="m 401.42696,908.40424 c -10.88551,0.0123 -20.83161,2.66886 -22.52199,9.80593 -1.83448,7.74566 -6.62794,2.47085 -14.67725,0.25305 3.89082,16.1024 11.15686,30.87687 21.00365,43.55729 l 75.6954,1.80302 c 0,0 41.00091,-1.05854 16.60679,-20.14959 -24.39415,-19.09108 -38.90736,-9.90082 -38.90736,-9.90082 0,0 1.43479,-14.48738 -11.29263,-20.49754 -5.96594,-2.81725 -16.30175,-4.88217 -25.90661,-4.87134 z"
           id="path4756-4-3-3-2"
           style="opacity:0.4;fill:#ffffff;stroke:none;display:inline" />
        <g
           id="g4343">
          <g
             transform="matrix(1.5791081,0,0,1.5791081,-283.80518,-530.21449)"
             id="g4298"
             style="fill:#4e9a06">
            <path
               d="m 398.8125,925.5 0,30 75.6875,0 0,-30 z"
               id="path4288"
               style="fill:#729fcf;fill-opacity:1;stroke:none" />
            <path
               d="m 407.85533,921.60589 c -2.15968,0.20901 -3.86252,1.8568 -4.1024,3.91222 l 9.15569,0 c -0.24966,-2.20625 -2.20989,-3.91222 -4.59143,-3.91222 -0.15943,0 -0.3066,-0.015 -0.46186,0 z"
               id="path4316"
               style="fill:#3465a4;fill-opacity:1;stroke:none" />
            <path
               d="m 426.71261,921.60589 c -2.15967,0.20901 -3.86252,1.8568 -4.1024,3.91222 l 9.15569,0 c -0.24966,-2.20625 -2.20988,-3.91222 -4.59143,-3.91222 -0.15942,0 -0.30659,-0.015 -0.46186,0 z"
               id="path4314"
               style="fill:#3465a4;fill-opacity:1;stroke:none" />
            <path
               d="m 445.5699,921.60589 c -2.15968,0.20901 -3.86252,1.8568 -4.1024,3.91222 l 9.15569,0 c -0.24967,-2.20625 -2.20989,-3.91222 -4.59143,-3.91222 -0.15943,0 -0.3066,-0.015 -0.46186,0 z"
               id="path4312"
               style="fill:#3465a4;fill-opacity:1;stroke:none" />
            <path
               d="m 464.42718,921.60589 c -2.15967,0.20901 -3.86252,1.8568 -4.1024,3.91222 l 9.15569,0 c -0.24966,-2.20625 -2.20988,-3.91222 -4.59143,-3.91222 -0.15942,0 -0.30659,-0.015 -0.46186,0 z"
               id="path4279"
               style="fill:#3465a4;fill-opacity:1;stroke:none" />
            <g
               transform="matrix(0.18063108,0,0,-0.18063108,435.11084,949.67087)"
               id="g5238"
               style="fill:#204a87;fill-opacity:1">
              <path
                 d="m 0,0 c -5.287,0 -9.164,3.262 -5.463,17.615 l 6.07,25.457 c 1.057,4.077 1.231,5.707 0,5.707 -1.587,0 -8.451,-2.816 -12.509,-5.59 l -2.641,4.405 c 12.863,10.926 27.662,17.334 34.004,17.334 5.285,0 6.168,-6.362 3.525,-16.149 L 16.037,22.02 c -1.234,-4.729 -0.703,-6.36 0.527,-6.36 1.586,0 6.788,1.963 11.897,6.041 l 2.996,-4.078 C 18.945,4.9 5.287,0 0,0 m 20.619,100 c 6.695,0 10.043,-4.567 10.043,-9.789 0,-6.523 -5.814,-12.555 -13.391,-12.555 -6.343,0 -10.044,3.752 -9.869,9.948 0,5.22 4.405,12.396 13.217,12.396"
                 id="path5240"
                 style="fill:#204a87;fill-opacity:1;fill-rule:nonzero;stroke:none" />
            </g>
          </g>
          <g
             transform="matrix(1.5791081,0,0,1.5791081,-163.39819,-530.21449)"
             id="g4318"
             style="fill:#4e9a06">
            <path
               d="m 466.375,931.25 0,47.375 82.46875,0 C 563.47461,966.03606 574.83022,949.76737 581.5,931.25 l -115.125,0 z"
               transform="matrix(0.63326887,0,0,0.63326887,103.47499,335.76833)"
               id="path4320"
               style="fill:#ad7fa8;fill-opacity:1;stroke:none" />
            <path
               d="m 407.85533,921.60589 c -2.15968,0.20901 -3.86252,1.8568 -4.1024,3.91222 l 9.15569,0 c -0.24966,-2.20625 -2.20989,-3.91222 -4.59143,-3.91222 -0.15943,0 -0.3066,-0.015 -0.46186,0 z"
               id="path4322"
               style="fill:#73d216;fill-opacity:1;stroke:none" />
            <path
               d="m 426.71261,921.60589 c -2.15967,0.20901 -3.86252,1.8568 -4.1024,3.91222 l 9.15569,0 c -0.24966,-2.20625 -2.20988,-3.91222 -4.59143,-3.91222 -0.15942,0 -0.30659,-0.015 -0.46186,0 z"
               id="path4324"
               style="fill:#73d216;fill-opacity:1;stroke:none" />
            <path
               d="m 445.5699,921.60589 c -2.15968,0.20901 -3.86252,1.8568 -4.1024,3.91222 l 9.15569,0 c -0.24967,-2.20625 -2.20989,-3.91222 -4.59143,-3.91222 -0.15943,0 -0.3066,-0.015 -0.46186,0 z"
               id="path4326"
               style="fill:#73d216;fill-opacity:1;stroke:none" />
            <path
               d="m 464.42718,921.60589 c -2.15967,0.20901 -3.86252,1.8568 -4.1024,3.91222 l 9.15569,0 c -0.24966,-2.20625 -2.20988,-3.91222 -4.59143,-3.91222 -0.15942,0 -0.30659,-0.015 -0.46186,0 z"
               id="path4328"
               style="fill:#73d216;fill-opacity:1;stroke:none" />
            <path
               d="m 436.87833,931.55958 -1.27038,0 0,3.08521 1.27038,0 0,-3.08521 z m -8.16674,0 -1.27038,0 0,3.08521 1.27038,0 0,-3.08521 z m 9.80009,14.51865 -12.70382,0 0,-7.25933 12.70382,0 0,7.25933 z m 0,-12.70382 -0.81668,0 0,1.81483 -2.90373,0 0,-1.81483 -5.263,0 0,1.81483 -2.90373,0 0,-1.81483 -0.81668,0 c -0.99815,0 -1.81483,0.81668 -1.81483,1.81483 l 0,10.88899 c 0,0.99815 0.81668,1.81483 1.81483,1.81483 l 12.70382,0 c 0.99815,0 1.81483,-0.81668 1.81483,-1.81483 l 0,-10.88899 c 0,-0.99815 -0.81668,-1.81483 -1.81483,-1.81483"
               id="path5346"
               style="fill:#5c3566;fill-opacity:1;fill-rule:nonzero;stroke:none" />
          </g>
          <g
             transform="matrix(1.5791081,0,0,1.5791081,-224.09516,-577.53983)"
             id="g4330"
             style="fill:#4e9a06">
            <path
               d="m 398.8125,925.5 0,30 75.6875,0 0,-30 z"
               id="path4332"
               style="fill:#e9b96e;fill-opacity:1;stroke:none" />
            <path
               d="m 407.85533,921.60589 c -2.15968,0.20901 -3.86252,1.8568 -4.1024,3.91222 l 9.15569,0 c -0.24966,-2.20625 -2.20989,-3.91222 -4.59143,-3.91222 -0.15943,0 -0.3066,-0.015 -0.46186,0 z"
               id="path4334"
               style="fill:#c17d11;fill-opacity:1;stroke:none" />
            <path
               d="m 426.71261,921.60589 c -2.15967,0.20901 -3.86252,1.8568 -4.1024,3.91222 l 9.15569,0 c -0.24966,-2.20625 -2.20988,-3.91222 -4.59143,-3.91222 -0.15942,0 -0.30659,-0.015 -0.46186,0 z"
               id="path4336"
               style="fill:#c17d11;fill-opacity:1;stroke:none" />
            <path
               d="m 445.5699,921.60589 c -2.15968,0.20901 -3.86252,1.8568 -4.1024,3.91222 l 9.15569,0 c -0.24967,-2.20625 -2.20989,-3.91222 -4.59143,-3.91222 -0.15943,0 -0.3066,-0.015 -0.46186,0 z"
               id="path4338"
               style="fill:#c17d11;fill-opacity:1;stroke:none" />
            <path
               d="m 464.42718,921.60589 c -2.15967,0.20901 -3.86252,1.8568 -4.1024,3.91222 l 9.15569,0 c -0.24966,-2.20625 -2.20988,-3.91222 -4.59143,-3.91222 -0.15942,0 -0.30659,-0.015 -0.46186,0 z"
               id="path4340"
               style="fill:#c17d11;fill-opacity:1;stroke:none" />
            <g
               transform="matrix(0.20112494,0,0,-0.20112494,444.93685,931.6831)"
               id="g5468"
               style="fill:#8f5902;fill-opacity:1">
              <path
                 d="m 0,0 -45,0 c -5.5,0 -10,-4.5 -10,-10 l 0,-40 35,0 15,-15 0,15 5,0 c 5.5,0 10,4.5 10,10 l 0,30 C 10,-4.5 5.5,0 0,0 m -61,-56 0,31 -19,0 c -5.5,0 -10,-4.5 -10,-10 l 0,-30 c 0,-5.5 4.5,-10 10,-10 l 5,0 0,-15 15,15 25,0 c 5.5,0 10,4.5 10,10 l 0,9.102 C -25.322,-55.965 -25.659,-56 -26,-56 l -35,0 z"
                 id="path5470"
                 style="fill:#8f5902;fill-opacity:1;fill-rule:nonzero;stroke:none" />
            </g>
          </g>
          <g
             transform="matrix(1.5791081,0,0,1.5791081,-103.78171,-577.53983)"
             id="g4342"
             style="fill:#4e9a06">
            <path
               d="m 398.8125,925.5 0,30 75.6875,0 0,-30 z"
               id="path4344"
               style="fill:#fce94f;fill-opacity:1;stroke:none" />
            <path
               d="m 407.85533,921.60589 c -2.15968,0.20901 -3.86252,1.8568 -4.1024,3.91222 l 9.15569,0 c -0.24966,-2.20625 -2.20989,-3.91222 -4.59143,-3.91222 -0.15943,0 -0.3066,-0.015 -0.46186,0 z"
               id="path4346"
               style="fill:#edd400;fill-opacity:1;stroke:none" />
            <path
               d="m 426.71261,921.60589 c -2.15967,0.20901 -3.86252,1.8568 -4.1024,3.91222 l 9.15569,0 c -0.24966,-2.20625 -2.20988,-3.91222 -4.59143,-3.91222 -0.15942,0 -0.30659,-0.015 -0.46186,0 z"
               id="path4348"
               style="fill:#edd400;fill-opacity:1;stroke:none" />
            <path
               d="m 445.5699,921.60589 c -2.15968,0.20901 -3.86252,1.8568 -4.1024,3.91222 l 9.15569,0 c -0.24967,-2.20625 -2.20989,-3.91222 -4.59143,-3.91222 -0.15943,0 -0.3066,-0.015 -0.46186,0 z"
               id="path4350"
               style="fill:#edd400;fill-opacity:1;stroke:none" />
            <path
               d="m 464.42718,921.60589 c -2.15967,0.20901 -3.86252,1.8568 -4.1024,3.91222 l 9.15569,0 c -0.24966,-2.20625 -2.20988,-3.91222 -4.59143,-3.91222 -0.15942,0 -0.30659,-0.015 -0.46186,0 z"
               id="path4352"
               style="fill:#edd400;fill-opacity:1;stroke:none" />
            <g
               transform="matrix(0.2207668,0,0,-0.2207668,433.77167,943.7724)"
               id="g6126"
               style="fill:#c4a000;fill-opacity:1;display:inline">
              <path
                 d="M 0.55283358,0.51213169 53.400344,15.612375 c 1.009357,0.288388 1.836322,1.383688 1.836322,2.434106 l 0,26.260463 -67.322277,0 0,8.116871 c 0,1.050418 -0.859433,1.909851 -1.909852,1.909851 l -14.801352,0 c -1.051373,0 -1.909851,-0.859433 -1.909851,-1.909851 l 0,-7.639408 9.279015,0 9.395516,-43.2428652 0.90145,-4.5043855 0,-7.1619443 c 0,-1.049464 0.858478,-1.909852 1.9098518,-1.909852 l 2.3873148,0 47.7462964,0 12.414037,0 c 1.050418,0 1.909851,0.860388 1.909851,1.909852 l 0,7.1619443 -53.7050333,0 c -5.4889142,0 -5.6006406,2.15240299 -0.97879912,3.47497539 M 31.362563,-22.061362 c 0,-5.274056 4.274249,-9.548304 9.550215,-9.548304 5.27501,0 9.548304,4.274248 9.548304,9.548304 0,5.275011 -4.273294,9.549259 -9.548304,9.549259 -5.275966,0 -9.550215,-4.274248 -9.550215,-9.549259 m -47.746296,0 c 0,-5.274056 4.274249,-9.548304 9.5502146,-9.548304 5.2750108,0 9.5483043,4.274248 9.5483043,9.548304 0,5.275011 -4.2732935,9.549259 -9.5483043,9.549259 -5.2759656,0 -9.5502146,-4.274248 -9.5502146,-9.549259"
                 id="path6128"
                 style="fill:#c4a000;fill-opacity:1;fill-rule:nonzero;stroke:none" />
            </g>
          </g>
          <g
             transform="matrix(1.5791081,0,0,1.5791081,-191.15552,-624.60047)"
             id="g4375"
             style="fill:#4e9a06">
            <path
               d="m 398.8125,925.5 0,30 75.6875,0 0,-30 z"
               id="path4377"
               style="fill:#8ae234;fill-opacity:1;stroke:none" />
            <path
               d="m 407.85533,921.60589 c -2.15968,0.20901 -3.86252,1.8568 -4.1024,3.91222 l 9.15569,0 c -0.24966,-2.20625 -2.20989,-3.91222 -4.59143,-3.91222 -0.15943,0 -0.3066,-0.015 -0.46186,0 z"
               id="path4379"
               style="fill:#73d216;fill-opacity:1;stroke:none" />
            <path
               d="m 426.71261,921.60589 c -2.15967,0.20901 -3.86252,1.8568 -4.1024,3.91222 l 9.15569,0 c -0.24966,-2.20625 -2.20988,-3.91222 -4.59143,-3.91222 -0.15942,0 -0.30659,-0.015 -0.46186,0 z"
               id="path4381"
               style="fill:#73d216;fill-opacity:1;stroke:none" />
            <path
               d="m 445.5699,921.60589 c -2.15968,0.20901 -3.86252,1.8568 -4.1024,3.91222 l 9.15569,0 c -0.24967,-2.20625 -2.20989,-3.91222 -4.59143,-3.91222 -0.15943,0 -0.3066,-0.015 -0.46186,0 z"
               id="path4383"
               style="fill:#73d216;fill-opacity:1;stroke:none" />
            <path
               d="m 464.42718,921.60589 c -2.15967,0.20901 -3.86252,1.8568 -4.1024,3.91222 l 9.15569,0 c -0.24966,-2.20625 -2.20988,-3.91222 -4.59143,-3.91222 -0.15942,0 -0.30659,-0.015 -0.46186,0 z"
               id="path4385"
               style="fill:#73d216;fill-opacity:1;stroke:none" />
            <g
               transform="matrix(0.22541671,0,0,-0.22541671,434.35334,943.78429)"
               id="g6042"
               style="fill:#4e9a06;fill-opacity:1">
              <path
                 d="M 0,0 0,30 25,15 0,0 z m 60,40 0,6 c 0,2.209 -1.792,4 -4,4 l -90,0 c -2.209,0 -4,-1.791 -4,-4 l 0,-6 10,0 0,-10 -10,0 0,-10 10,0 0,-10 -10,0 0,-10 10,0 0,-10 -10,0 0,-6 c 0,-2.209 1.791,-4 4,-4 l 90,0 c 2.208,0 4,1.791 4,4 l 0,6 -10,0 0,10 10,0 0,10 -10,0 0,10 10,0 0,10 -10,0 0,10 10,0 z"
                 id="path6044"
                 style="fill:#4e9a06;fill-opacity:1;fill-rule:nonzero;stroke:none" />
            </g>
          </g>
        </g>
        <g
           transform="matrix(1.2037966,0,0,1.2037966,-84.030468,-172.14037)"
           clip-path="url(#clipPath4317-7)"
           id="g7962">
          <g
             id="g4312">
            <g
               transform="matrix(0.9132825,0,0,-0.9132825,386.0803,851.25531)"
               id="g5448"
               style="fill:#555753">
              <path
                 d="m 0,0 c -10.087,0 -18.265,8.178 -18.265,18.266 0,10.088 8.178,18.265 18.265,18.265 10.088,0 18.265,-8.177 18.265,-18.265 C 18.265,8.178 10.088,0 0,0 m 33.921,18.266 c 0,5.237 3.224,9.371 8.079,12.213 -0.874,2.923 -2.033,5.723 -3.459,8.36 -5.444,-1.425 -9.851,0.708 -13.555,4.412 -3.704,3.704 -4.838,8.112 -3.413,13.555 -2.635,1.426 -5.435,2.586 -8.36,3.46 C 10.371,55.409 5.238,52.187 0,52.187 c -5.237,0 -10.37,3.222 -13.213,8.079 -2.924,-0.873 -5.724,-2.034 -8.359,-3.458 1.424,-5.445 0.291,-9.852 -3.413,-13.557 -3.704,-3.704 -8.113,-5.837 -13.556,-4.414 -1.426,-2.635 -2.585,-5.435 -3.459,-8.358 4.855,-2.842 8.079,-6.976 8.079,-12.213 0,-5.238 -3.224,-10.371 -8.079,-13.213 0.874,-2.924 2.033,-5.724 3.459,-8.361 5.444,1.425 9.852,0.291 13.556,-3.413 3.703,-3.704 4.837,-8.111 3.413,-13.555 2.635,-1.425 5.435,-2.586 8.36,-3.458 2.843,4.855 7.975,8.079 13.212,8.079 5.238,0 10.371,-3.224 13.213,-8.079 2.925,0.874 5.725,2.033 8.361,3.46 -1.424,5.442 -0.292,9.849 3.412,13.553 3.704,3.704 8.112,5.838 13.555,4.413 1.426,2.637 2.585,5.437 3.459,8.361 -4.855,2.842 -8.079,6.975 -8.079,12.213"
                 id="path5450"
                 style="fill:#555753;fill-opacity:1;fill-rule:nonzero;stroke:none" />
            </g>
            <path
               d="m 386.09239,810.91912 c -13.06566,0 -23.67327,10.57908 -23.67327,23.64474 0,13.06566 10.60761,23.67327 23.67327,23.67327 13.06566,0 23.64474,-10.60761 23.64474,-23.67327 0,-13.06566 -10.57908,-23.64474 -23.64474,-23.64474 z m 0,7.50129 c 8.91783,0 16.14345,7.22562 16.14345,16.14345 0,8.91783 -7.22562,16.14346 -16.14345,16.14346 -8.91783,0 -16.17198,-7.22563 -16.17198,-16.14346 0,-8.91783 7.25415,-16.14345 16.17198,-16.14345 z"
               id="path7957"
               style="fill:#888a85;fill-opacity:1;stroke:none" />
          </g>
        </g>
        <g
           transform="matrix(1.2037966,0,0,1.2037966,-84.030468,-172.14037)"
           clip-path="url(#clipPath4317-7)"
           id="g4331">
          <g
             transform="matrix(0.73269221,0,0,0.73269221,200.95088,182.07451)"
             id="g4333">
            <g
               transform="matrix(0.9132825,0,0,-0.9132825,386.0803,851.25531)"
               id="g4335"
               style="fill:#555753">
              <path
                 d="m 0,0 c -10.087,0 -18.265,8.178 -18.265,18.266 0,10.088 8.178,18.265 18.265,18.265 10.088,0 18.265,-8.177 18.265,-18.265 C 18.265,8.178 10.088,0 0,0 m 33.921,18.266 c 0,5.237 3.224,9.371 8.079,12.213 -0.874,2.923 -2.033,5.723 -3.459,8.36 -5.444,-1.425 -9.851,0.708 -13.555,4.412 -3.704,3.704 -4.838,8.112 -3.413,13.555 -2.635,1.426 -5.435,2.586 -8.36,3.46 C 10.371,55.409 5.238,52.187 0,52.187 c -5.237,0 -10.37,3.222 -13.213,8.079 -2.924,-0.873 -5.724,-2.034 -8.359,-3.458 1.424,-5.445 0.291,-9.852 -3.413,-13.557 -3.704,-3.704 -8.113,-5.837 -13.556,-4.414 -1.426,-2.635 -2.585,-5.435 -3.459,-8.358 4.855,-2.842 8.079,-6.976 8.079,-12.213 0,-5.238 -3.224,-10.371 -8.079,-13.213 0.874,-2.924 2.033,-5.724 3.459,-8.361 5.444,1.425 9.852,0.291 13.556,-3.413 3.703,-3.704 4.837,-8.111 3.413,-13.555 2.635,-1.425 5.435,-2.586 8.36,-3.458 2.843,4.855 7.975,8.079 13.212,8.079 5.238,0 10.371,-3.224 13.213,-8.079 2.925,0.874 5.725,2.033 8.361,3.46 -1.424,5.442 -0.292,9.849 3.412,13.553 3.704,3.704 8.112,5.838 13.555,4.413 1.426,2.637 2.585,5.437 3.459,8.361 -4.855,2.842 -8.079,6.975 -8.079,12.213"
                 id="path4337"
                 style="fill:#555753;fill-opacity:1;fill-rule:nonzero;stroke:none" />
            </g>
            <path
               d="m 386.09239,810.91912 c -13.06566,0 -23.67327,10.57908 -23.67327,23.64474 0,13.06566 10.60761,23.67327 23.67327,23.67327 13.06566,0 23.64474,-10.60761 23.64474,-23.67327 0,-13.06566 -10.57908,-23.64474 -23.64474,-23.64474 z m 0,7.50129 c 8.91783,0 16.14345,7.22562 16.14345,16.14345 0,8.91783 -7.22562,16.14346 -16.14345,16.14346 -8.91783,0 -16.17198,-7.22563 -16.17198,-16.14346 0,-8.91783 7.25415,-16.14345 16.17198,-16.14345 z"
               id="path4339"
               style="fill:#888a85;fill-opacity:1;stroke:none" />
          </g>
        </g>
      </g>
    </g>
  </g>
</svg>
