<?xml version="1.0" encoding="UTF-8" standalone="no"?>
<!-- Created with Inkscape (http://www.inkscape.org/) -->

<svg
   xmlns:dc="http://purl.org/dc/elements/1.1/"
   xmlns:cc="http://creativecommons.org/ns#"
   xmlns:rdf="http://www.w3.org/1999/02/22-rdf-syntax-ns#"
   xmlns:svg="http://www.w3.org/2000/svg"
   xmlns="http://www.w3.org/2000/svg"
   xmlns:sodipodi="http://sodipodi.sourceforge.net/DTD/sodipodi-0.dtd"
   xmlns:inkscape="http://www.inkscape.org/namespaces/inkscape"
   version="1.1"
   width="415"
   height="415"
   id="svg5657"
   inkscape:version="0.48.2 r9819"
   sodipodi:docname="whitelabel-nl.svg">
  <sodipodi:namedview
     pagecolor="#ffffff"
     bordercolor="#666666"
     borderopacity="1"
     objecttolerance="10"
     gridtolerance="10"
     guidetolerance="10"
     inkscape:pageopacity="0"
     inkscape:pageshadow="2"
     inkscape:window-width="640"
     inkscape:window-height="480"
     id="namedview6953"
     showgrid="false"
     inkscape:zoom="6.4338198"
     inkscape:cx="221.13966"
     inkscape:cy="145.71575"
     inkscape:window-x="1756"
     inkscape:window-y="193"
     inkscape:window-maximized="0"
     inkscape:current-layer="g3592" />
  <defs
     id="defs5659">
    <clipPath
       id="clipPath11937-4">
      <path
         d="m 152,313.36218 a 95.5,95.5 0 1 1 -191,0 95.5,95.5 0 1 1 191,0 z"
         transform="matrix(1.1055238,0,0,1.1055238,136.89046,883.7616)"
         id="path11939-1"
         style="fill:#aee2fc;fill-opacity:1;stroke:none;display:inline" />
    </clipPath>
    <clipPath
       id="clipPath11736-8">
      <rect
         width="246.46785"
         height="80.595322"
         x="93.637718"
         y="1115.2333"
         id="rect11738-0"
         style="opacity:0.0646552;fill:#2e3436;fill-opacity:1;stroke:none" />
    </clipPath>
    <clipPath
       id="clipPath9836-5-6-8">
      <path
         d="m 152,313.36218 a 95.5,95.5 0 1 1 -191,0 95.5,95.5 0 1 1 191,0 z"
         transform="matrix(1.2950742,0,0,1.2950742,106.46257,479.81137)"
         id="path9838-6-9-8"
         style="fill:#aee2fc;fill-opacity:1;stroke:none;display:inline" />
    </clipPath>
  </defs>
  <metadata
     id="metadata5662">
    <rdf:RDF>
      <cc:Work
         rdf:about="">
        <dc:format>image/svg+xml</dc:format>
        <dc:type
           rdf:resource="http://purl.org/dc/dcmitype/StillImage" />
        <dc:title />
      </cc:Work>
    </rdf:RDF>
  </metadata>
  <g
     transform="translate(0,-637.36218)"
     id="layer1">
    <g
       transform="translate(-269.36737,118.22329)"
       id="g5764">
      <rect
         width="415.55096"
         height="414.98203"
         x="269.36737"
         y="519.15686"
         id="rect5312"
         style="fill:#888a85;fill-opacity:0;stroke:none" />
      <g
         transform="matrix(1.0185811,0,0,1.0185811,273.02933,-555.32342)"
         id="g3565"
         style="display:inline">
        <g
           transform="matrix(1.0557141,0,0,1.0557141,23.802143,660.19423)"
           id="g3567">
          <path
             d="m 152,313.36218 a 95.5,95.5 0 1 1 -191,0 95.5,95.5 0 1 1 191,0 z"
             transform="matrix(1.2267281,0,0,1.2267281,98.189867,182.452)"
             id="path3569"
             style="fill:#aee2fc;fill-opacity:1;stroke:none;display:inline" />
          <path
             d="m 84.28171,488.77424 c 11.32154,0.0127 21.66605,2.77575 23.42413,10.19869 3.30926,13.97257 15.81451,-12.88116 39.34725,6.97461 23.53272,19.85576 2.58959,38.26738 -17.63389,37.89969 l -79.94467,1.90814 c 4.39413,-21.56868 14.5898,-41.03772 28.85247,-56.71794 1.98246,-0.15284 3.98941,-0.26541 5.95471,-0.26319 z"
             id="path3571"
             style="opacity:0.26896554;fill:#ffffff;stroke:none;display:inline" />
          <path
             d="m 321.84375,1234.0312 c -9.68978,1.13 -16.95374,9.2764 -15.75,29.0313 0,0 -3.26243,-15.7851 -31.0625,-1.5625 -27.80006,14.2226 -2.80988,28.1479 10.46875,31.0938 4.626,1.0262 18.23803,1.0083 33.9375,0.5624 3.17771,-10.9554 4.875,-22.5511 4.875,-34.5312 0,-8.428 -0.83123,-16.6393 -2.4375,-24.5938 -0.0104,0 -0.0209,0 -0.0312,0 z"
             transform="matrix(0.94722615,0,0,0.94722615,-22.546012,-625.35324)"
             id="path3573"
             style="opacity:0.2579518;fill:#ffffff;fill-opacity:1;stroke:none;display:inline" />
        </g>
        <g
           transform="matrix(1.1714576,0,0,1.1714576,-32.898797,-182.47789)"
           id="g3575">
          <g
             id="g3577">
            <rect
               width="157.81735"
               height="122.17401"
               rx="0"
               ry="0"
               x="119.13401"
               y="1196.1802"
               clip-path="url(#clipPath11937-4)"
               id="rect3579"
               style="fill:#fce94f;fill-opacity:1;stroke:none" />
          </g>
          <g
             transform="matrix(0.53449776,0.34144522,-0.34144522,0.53449776,221.90996,990.27237)"
             id="g3581"
             style="opacity:0.5;display:inline">
            <path
               d="m 211.27787,308.62681 c -6.91543,29.22254 -2.30616,68.15759 49.18269,98.53618 70.90582,41.83466 44.15749,-94.12439 6.80592,-137.77628 -30.42241,-35.55394 -50.38514,15.56153 -55.98861,39.2401 z"
               id="path3583"
               style="fill:#fcaf3e;stroke:none" />
            <path
               d="m 274.66503,419.347 c 3.51261,-0.53916 7.18974,-1.3199 10.56539,-2.80301 16.05953,-7.05584 21.09601,-19.01339 17.89056,-35.11118 -1.03517,-5.19861 -3.45061,-9.87444 -7.56978,-13.20395 -4.5755,-3.69836 -10.67317,-5.63636 -16.48265,-6.15386 -17.02683,-1.51674 -34.01655,3.15776 -49.5378,9.76415 -12.31702,5.24256 -24.69947,11.78845 -33.56132,22.07559 -10.7751,12.50811 3.88868,18.53216 15.27752,21.79463 20.99886,6.01536 46.99727,6.15809 63.41808,3.63763 z"
               id="path3586"
               style="fill:#5fbc07;fill-opacity:1;stroke:none" />
            <path
               d="m 209.65625,1699.7812 c 0.93546,19.2039 6.61323,40.9799 19.0625,65.5313 9.70256,19.1346 20.05251,28.3139 30.40625,30.0937 0.0102,0 0.021,0 0.0312,0 5.79717,0.077 10.94897,-0.8537 15.53125,-2.6562 5.71654,-2.8319 11.33874,-7.5681 16.71875,-13.8125 2.33687,-3.4487 4.35925,-7.3971 6.09375,-11.8437 2.66093,-6.8217 3.3192,-14.0608 1,-21 -2.57613,-7.708 -8.21563,-14.5148 -14.59375,-19.4376 -18.69342,-14.4278 -41.95591,-21.6168 -64.9375,-25.4687 -3.08124,-0.5164 -6.18297,-1.0002 -9.3125,-1.4063 z"
               transform="matrix(0.61005856,-0.38971461,0.38971461,0.61005856,-567.03183,-580.65047)"
               id="path3588"
               style="fill:#4e9a06;fill-opacity:1;stroke:none" />
          </g>
          <path
             d="m 118.23548,1196.1365 23.88356,-19.8635 110.43193,0.3679 23.6471,19.4956 z"
             id="path3590"
             style="fill:#c4a000;stroke:none" />
          <g
             transform="matrix(0.89302265,0,0,0.89302265,36.149573,-4.4261099)"
             id="g3592">
            <path
               d="m 119.125,1403.0625 c -4.08237,0 -7.375,3.2614 -7.375,7.3437 l 0,34.6876 c 0,4.0823 3.29263,7.375 7.375,7.375 l 109.1875,0 21.65625,-22.0313 0,-20.0313 c 0,-4.0823 -3.26138,-7.3437 -7.34375,-7.3437 l -123.5,0 z"
               id="path3594"
               style="fill:#fafaf9;fill-opacity:1;stroke:none;display:inline" />
            <g
               style="font-size:22.53937912px;font-style:normal;font-variant:normal;font-weight:bold;font-stretch:normal;line-height:125%;letter-spacing:0px;word-spacing:0px;fill:#000000;fill-opacity:1;stroke:none;font-family:Bariol;-inkscape-font-specification:Bariol Bold"
               id="text3596">
              <path
                 d="m 156.95233,1435.0804 c 4.46279,0 5.70247,-2.4568 6.13071,-4.9361 l 1.75808,-9.9624 c 0.0676,-0.4282 -0.18032,-0.7663 -0.63111,-0.7663 -0.45078,0 -0.83395,0.3381 -0.90157,0.7663 l -1.75807,9.9624 c -0.31556,1.7806 -1.26221,3.4936 -4.3501,3.4936 -2.54695,0 -3.24568,-1.1495 -3.24568,-2.5469 0,-0.248 0.0225,-0.5635 0.0902,-0.9467 l 1.75807,-9.9624 c 0.0676,-0.4282 -0.18031,-0.7663 -0.6311,-0.7663 -0.45079,0 -0.83396,0.3381 -0.90157,0.7663 l -1.75808,9.9624 c -0.0676,0.4283 -0.11269,0.8565 -0.11269,1.2622 0,1.9835 1.26221,3.6739 4.55295,3.6739"
                 style="font-style:italic;fill:#204a87;stroke:#204a87;stroke-width:0.98175788;-inkscape-font-specification:Bariol Bold Italic"
                 id="path6956" />
              <path
                 d="m 172.46048,1427.2818 0.81142,7.145 c 0.0451,0.3156 0.29301,0.5184 0.60856,0.5184 0.31555,0 0.60857,-0.1803 0.76634,-0.4733 l 4.93613,-8.9932 c 0.0901,-0.1578 0.11269,-0.248 0.11269,-0.4057 0,-0.4057 -0.31555,-0.7213 -0.72126,-0.7213 -0.24793,0 -0.49586,0.1127 -0.65364,0.4057 l -3.92185,7.5282 -0.83396,-7.438 c -0.0225,-0.2254 -0.20285,-0.4959 -0.6311,-0.4959 -0.38317,0 -0.6311,0.2705 -0.76634,0.5409 l -3.40345,7.393 -1.32982,-7.393 c -0.0451,-0.293 -0.36063,-0.5409 -0.69872,-0.5409 -0.40571,0 -0.72126,0.3156 -0.72126,0.7213 0,0.068 0.0225,0.1803 0.0451,0.293 l 1.69045,9.1059 c 0.0451,0.293 0.27047,0.4733 0.58603,0.4733 0.36063,0 0.65364,-0.2028 0.78887,-0.5184 l 3.33583,-7.145"
                 style="font-style:italic;fill:#204a87;stroke:#204a87;stroke-width:0.98175788;-inkscape-font-specification:Bariol Bold Italic"
                 id="path6958" />
              <path
                 d="m 196.46281,1424.2165 c -1.73553,0 -2.72727,0.6987 -3.29075,1.5777 -0.54095,-0.9016 -1.73553,-1.5777 -3.58376,-1.5777 -1.46506,0 -2.54695,0.7438 -2.93012,1.5777 l 0,-0.7212 c 0,-0.4057 -0.31555,-0.7213 -0.72126,-0.7213 -0.40571,0 -0.72126,0.3156 -0.72126,0.7213 l 0,9.1509 c 0,0.4058 0.31555,0.7213 0.72126,0.7213 0.40571,0 0.72126,-0.3155 0.72126,-0.7213 l 0,-5.5672 c 0,-1.8933 0.67618,-3.1555 2.77234,-3.1555 2.20886,0 2.77235,1.2171 2.77235,2.9977 l 0,5.725 c 0,0.4058 0.31555,0.7213 0.72126,0.7213 0.4057,0 0.72126,-0.3155 0.72126,-0.7213 l 0,-6.018 c 0,-1.6679 0.87903,-2.7047 2.81742,-2.7047 2.18632,0 2.81742,1.2171 2.81742,2.9977 l 0,5.725 c 0,0.4058 0.31555,0.7213 0.72126,0.7213 0.40571,0 0.72126,-0.3155 0.72126,-0.7213 l 0,-6.018 c 0,-1.9158 -0.78888,-3.9894 -4.25994,-3.9894"
                 style="fill:#729fcf;stroke:none"
                 id="path6960" />
              <path
                 d="m 202.76468,1429.6259 c 0,3.7866 1.87077,5.432 4.8685,5.432 2.00601,0 3.17806,-0.9241 3.51615,-1.2622 0.13523,-0.1352 0.24793,-0.2705 0.24793,-0.5184 0,-0.3606 -0.29301,-0.6536 -0.65364,-0.6536 -0.18032,0 -0.27047,0.045 -0.40571,0.1352 -0.6311,0.4733 -1.39744,0.9692 -2.70473,0.9692 -2.1187,0 -3.40344,-1.4425 -3.40344,-3.6739 l 6.5815,0 c 0.90157,0 0.90157,-0.7889 0.90157,-1.4426 0,-1.5326 -0.69872,-4.3951 -4.30502,-4.3951 -2.93012,0 -4.64311,1.9384 -4.64311,5.4094 m 7.52815,-0.8339 -6.06309,0 c 0.13523,-2.006 1.21713,-3.2683 3.17805,-3.2683 2.32155,0 2.88504,1.6454 2.88504,3.2683"
                 style="fill:#729fcf;stroke:none"
                 id="path6962" />
              <path
                 d="m 215.40469,1425.073 c 0,-0.4057 -0.31555,-0.7213 -0.72126,-0.7213 -0.40571,0 -0.72126,0.3156 -0.72126,0.7213 l 0,9.1509 c 0,0.4058 0.31555,0.7213 0.72126,0.7213 0.40571,0 0.72126,-0.3155 0.72126,-0.7213 l 0,-5.0488 c 0,-2.0736 1.05935,-3.5161 3.13297,-3.5161 0.38317,0 0.69872,-0.3156 0.69872,-0.6987 0,-0.3832 -0.31555,-0.6988 -0.69872,-0.6988 -1.55521,0 -2.68218,0.7664 -3.13297,1.8032 l 0,-0.9917"
                 style="fill:#729fcf;stroke:none"
                 id="path6964" />
              <path
                 d="m 228.35568,1434.9452 c 0.4057,0 0.72126,-0.3155 0.72126,-0.7213 0,-0.1352 -0.0225,-0.293 -0.15778,-0.4507 l -4.01201,-5.1616 3.69646,-2.9526 c 0.22539,-0.1803 0.29301,-0.4057 0.29301,-0.586 0,-0.4057 -0.31555,-0.7213 -0.72126,-0.7213 -0.13523,0 -0.31555,0.023 -0.49587,0.1803 l -5.31929,4.3501 0,-9.444 c 0,-0.4057 -0.31555,-0.7212 -0.72126,-0.7212 -0.40571,0 -0.72126,0.3155 -0.72126,0.7212 l 0,14.7858 c 0,0.4058 0.31555,0.7213 0.72126,0.7213 0.40571,0 0.72126,-0.3155 0.72126,-0.7213 l 0,-3.6288 1.3749,-1.1044 3.98947,5.1164 c 0.18032,0.2254 0.38317,0.3381 0.63111,0.3381"
                 style="fill:#729fcf;stroke:none"
                 id="path6966" />
            </g>
            <path
               d="m -811.02849,591.3337 -13.27983,3.55832 -9.72151,-9.72152 3.55832,-13.27983 13.27983,-3.55832 9.72151,9.72151 z"
               transform="matrix(0.56224172,-0.03740343,0.03740343,0.56224172,577.92386,1071.6731)"
               id="path3604"
               style="fill:#729fcf;fill-opacity:1;stroke:none" />
            <path
               d="m 117.1875,1406.25 c -1.30945,0 -2.34375,1.0343 -2.34375,2.3438 l 0,37.4062 c 0,1.3094 1.0343,2.3438 2.34375,2.3438 l 113.1775,0 16.22875,-15.5329 0,-24.2171 c 0,-1.3095 -1.06555,-2.3438 -2.375,-2.3438 z"
               id="path3606"
               style="fill:none;stroke:#888a85;stroke-width:0.98175788;stroke-miterlimit:4;stroke-dasharray:5.89054798, 5.89054798;stroke-dashoffset:0" />
            <path
               d="m 228.45498,1452.4688 21.51377,-21.9635 c -10.79835,6.7887 -25.64289,3.099 -23.87848,13.0503 z"
               id="path3608"
               style="fill:#d3d7cf;fill-opacity:1;stroke:none;display:inline" />
            <path
               d="m 244.68442,1434.4617 c -5.12374,1.7326 -9.26667,3.1146 -14.17522,4.2016 -1.27848,0.2831 -2.06909,1.0705 -2.375,2.3437 -0.65514,2.7267 0.93303,5.9434 1.47794,8.9322"
               id="path3610"
               style="fill:none;stroke:#babdb6;stroke-width:0.98175788;stroke-miterlimit:4;stroke-dasharray:5.89054798, 5.89054798;stroke-dashoffset:0" />
          </g>
          <path
             d="m 118.94489,1196.6095 24.35651,-20.573 -34.05182,-16.7895 -30.031811,13.4789 z"
             id="path3612"
             style="fill:#fce94f;stroke:none" />
          <path
             d="m 143.53787,1176.2729 8.74942,-29.5588 85.83896,0 14.89767,30.2683 z"
             id="path3614"
             style="fill:#fce94f;stroke:none" />
          <g
             clip-path="url(#clipPath11736-8)"
             id="g3616">
            <g
               transform="matrix(0.96845066,0,0,0.96845066,-144.06627,396.72285)"
               id="g3618"
               style="display:inline">
              <g
                 transform="matrix(0.9132825,0,0,-0.9132825,386.0803,851.25531)"
                 id="g3620"
                 style="fill:#555753">
                <path
                   d="m 0,0 c -10.087,0 -18.265,8.178 -18.265,18.266 0,10.088 8.178,18.265 18.265,18.265 10.088,0 18.265,-8.177 18.265,-18.265 C 18.265,8.178 10.088,0 0,0 m 33.921,18.266 c 0,5.237 3.224,9.371 8.079,12.213 -0.874,2.923 -2.033,5.723 -3.459,8.36 -5.444,-1.425 -9.851,0.708 -13.555,4.412 -3.704,3.704 -4.838,8.112 -3.413,13.555 -2.635,1.426 -5.435,2.586 -8.36,3.46 C 10.371,55.409 5.238,52.187 0,52.187 c -5.237,0 -10.37,3.222 -13.213,8.079 -2.924,-0.873 -5.724,-2.034 -8.359,-3.458 1.424,-5.445 0.291,-9.852 -3.413,-13.557 -3.704,-3.704 -8.113,-5.837 -13.556,-4.414 -1.426,-2.635 -2.585,-5.435 -3.459,-8.358 4.855,-2.842 8.079,-6.976 8.079,-12.213 0,-5.238 -3.224,-10.371 -8.079,-13.213 0.874,-2.924 2.033,-5.724 3.459,-8.361 5.444,1.425 9.852,0.291 13.556,-3.413 3.703,-3.704 4.837,-8.111 3.413,-13.555 2.635,-1.425 5.435,-2.586 8.36,-3.458 2.843,4.855 7.975,8.079 13.212,8.079 5.238,0 10.371,-3.224 13.213,-8.079 2.925,0.874 5.725,2.033 8.361,3.46 -1.424,5.442 -0.292,9.849 3.412,13.553 3.704,3.704 8.112,5.838 13.555,4.413 1.426,2.637 2.585,5.437 3.459,8.361 -4.855,2.842 -8.079,6.975 -8.079,12.213"
                   id="path3622"
                   style="fill:#555753;fill-opacity:1;fill-rule:nonzero;stroke:none" />
              </g>
              <path
                 d="m 386.09239,810.91912 c -13.06566,0 -23.67327,10.57908 -23.67327,23.64474 0,13.06566 10.60761,23.67327 23.67327,23.67327 13.06566,0 23.64474,-10.60761 23.64474,-23.67327 0,-13.06566 -10.57908,-23.64474 -23.64474,-23.64474 z m 0,7.50129 c 8.91783,0 16.14345,7.22562 16.14345,16.14345 0,8.91783 -7.22562,16.14346 -16.14345,16.14346 -8.91783,0 -16.17198,-7.22563 -16.17198,-16.14346 0,-8.91783 7.25415,-16.14345 16.17198,-16.14345 z"
                 id="path3624"
                 style="fill:#888a85;fill-opacity:1;stroke:none" />
            </g>
            <g
               transform="matrix(0.96845066,0,0,0.96845066,-214.62898,384.01487)"
               id="g3626"
               style="display:inline">
              <g
                 transform="matrix(0.9132825,0,0,-0.9132825,386.0803,851.25531)"
                 id="g3628"
                 style="fill:#555753">
                <path
                   d="m 0,0 c -10.087,0 -18.265,8.178 -18.265,18.266 0,10.088 8.178,18.265 18.265,18.265 10.088,0 18.265,-8.177 18.265,-18.265 C 18.265,8.178 10.088,0 0,0 m 33.921,18.266 c 0,5.237 3.224,9.371 8.079,12.213 -0.874,2.923 -2.033,5.723 -3.459,8.36 -5.444,-1.425 -9.851,0.708 -13.555,4.412 -3.704,3.704 -4.838,8.112 -3.413,13.555 -2.635,1.426 -5.435,2.586 -8.36,3.46 C 10.371,55.409 5.238,52.187 0,52.187 c -5.237,0 -10.37,3.222 -13.213,8.079 -2.924,-0.873 -5.724,-2.034 -8.359,-3.458 1.424,-5.445 0.291,-9.852 -3.413,-13.557 -3.704,-3.704 -8.113,-5.837 -13.556,-4.414 -1.426,-2.635 -2.585,-5.435 -3.459,-8.358 4.855,-2.842 8.079,-6.976 8.079,-12.213 0,-5.238 -3.224,-10.371 -8.079,-13.213 0.874,-2.924 2.033,-5.724 3.459,-8.361 5.444,1.425 9.852,0.291 13.556,-3.413 3.703,-3.704 4.837,-8.111 3.413,-13.555 2.635,-1.425 5.435,-2.586 8.36,-3.458 2.843,4.855 7.975,8.079 13.212,8.079 5.238,0 10.371,-3.224 13.213,-8.079 2.925,0.874 5.725,2.033 8.361,3.46 -1.424,5.442 -0.292,9.849 3.412,13.553 3.704,3.704 8.112,5.838 13.555,4.413 1.426,2.637 2.585,5.437 3.459,8.361 -4.855,2.842 -8.079,6.975 -8.079,12.213"
                   id="path3630"
                   style="fill:#555753;fill-opacity:1;fill-rule:nonzero;stroke:none" />
              </g>
              <path
                 d="m 386.09239,810.91912 c -13.06566,0 -23.67327,10.57908 -23.67327,23.64474 0,13.06566 10.60761,23.67327 23.67327,23.67327 13.06566,0 23.64474,-10.60761 23.64474,-23.67327 0,-13.06566 -10.57908,-23.64474 -23.64474,-23.64474 z m 0,7.50129 c 8.91783,0 16.14345,7.22562 16.14345,16.14345 0,8.91783 -7.22562,16.14346 -16.14345,16.14346 -8.91783,0 -16.17198,-7.22563 -16.17198,-16.14346 0,-8.91783 7.25415,-16.14345 16.17198,-16.14345 z"
                 id="path3632"
                 style="fill:#888a85;fill-opacity:1;stroke:none" />
            </g>
          </g>
          <path
             d="m 276.19808,1196.6095 -24.35651,-20.573 28.95349,-11.864 34.47274,15.4975 z"
             id="path3634"
             style="fill:#fce94f;stroke:none" />
          <path
             d="m 119.2996,1195.9249 7.10007,42.4112 129.74037,-0.2547 20.55312,-42.1813 z"
             id="path3636"
             style="opacity:0.0646552;fill:#2e3436;fill-opacity:1;stroke:none" />
          <path
             d="m 119.2996,1195.9261 11.94916,36.3905 120.71102,0 24.73338,-36.4165 z"
             id="path3638"
             style="fill:#fff287;fill-opacity:1;stroke:none" />
        </g>
        <g
           transform="translate(21.017994,372.93152)"
           clip-path="url(#clipPath9836-5-6-8)"
           id="g3640"
           style="display:inline">
          <rect
             width="338.74066"
             height="32.408012"
             x="15.432376"
             y="988.31781"
             id="rect3642"
             style="fill:#8f5902;fill-opacity:1;stroke:none" />
          <rect
             width="177.87387"
             height="32.408012"
             x="176.29916"
             y="988.31781"
             id="rect3644"
             style="opacity:0.20689655;fill:#2e3436;fill-opacity:1;stroke:none" />
        </g>
      </g>
    </g>
  </g>
</svg>
